<svg viewBox="0 0 330 200.00001525878906" xmlns="http://www.w3.org/2000/svg"><g><g><g><g><g><line x1="51.5625" y1="177" x2="46.5625" y2="177" style="visibility: inherit;" fill="rgb(0, 0, 0)" stroke="rgb(204, 204, 204)" stroke-width="1px"></line><line x1="51.5625" y1="164.35714285714286" x2="46.5625" y2="164.35714285714286" style="visibility: inherit;" fill="rgb(0, 0, 0)" stroke="rgb(204, 204, 204)" stroke-width="1px"></line><line x1="51.5625" y1="151.71428571428572" x2="46.5625" y2="151.71428571428572" style="visibility: inherit;" fill="rgb(0, 0, 0)" stroke="rgb(204, 204, 204)" stroke-width="1px"></line><line x1="51.5625" y1="139.07142857142856" x2="46.5625" y2="139.07142857142856" style="visibility: inherit;" fill="rgb(0, 0, 0)" stroke="rgb(204, 204, 204)" stroke-width="1px"></line><line x1="51.5625" y1="126.42857142857142" x2="46.5625" y2="126.42857142857142" style="visibility: inherit;" fill="rgb(0, 0, 0)" stroke="rgb(204, 204, 204)" stroke-width="1px"></line><line x1="51.5625" y1="113.78571428571428" x2="46.5625" y2="113.78571428571428" style="visibility: inherit;" fill="rgb(0, 0, 0)" stroke="rgb(204, 204, 204)" stroke-width="1px"></line><line x1="51.5625" y1="101.14285714285714" x2="46.5625" y2="101.14285714285714" style="visibility: inherit;" fill="rgb(0, 0, 0)" stroke="rgb(204, 204, 204)" stroke-width="1px"></line><line x1="51.5625" y1="88.5" x2="46.5625" y2="88.5" style="visibility: inherit;" fill="rgb(0, 0, 0)" stroke="rgb(204, 204, 204)" stroke-width="1px"></line><line x1="51.5625" y1="75.85714285714285" x2="46.5625" y2="75.85714285714285" style="visibility: inherit;" fill="rgb(0, 0, 0)" stroke="rgb(204, 204, 204)" stroke-width="1px"></line><line x1="51.5625" y1="63.21428571428572" x2="46.5625" y2="63.21428571428572" style="visibility: inherit;" fill="rgb(0, 0, 0)" stroke="rgb(204, 204, 204)" stroke-width="1px"></line><line x1="51.5625" y1="50.57142857142857" x2="46.5625" y2="50.57142857142857" style="visibility: inherit;" fill="rgb(0, 0, 0)" stroke="rgb(204, 204, 204)" stroke-width="1px"></line><line x1="51.5625" y1="37.92857142857141" x2="46.5625" y2="37.92857142857141" style="visibility: inherit;" fill="rgb(0, 0, 0)" stroke="rgb(204, 204, 204)" stroke-width="1px"></line><line x1="51.5625" y1="25.285714285714274" x2="46.5625" y2="25.285714285714274" style="visibility: inherit;" fill="rgb(0, 0, 0)" stroke="rgb(204, 204, 204)" stroke-width="1px"></line><line x1="51.5625" y1="12.642857142857117" x2="46.5625" y2="12.642857142857117" style="visibility: inherit;" fill="rgb(0, 0, 0)" stroke="rgb(204, 204, 204)" stroke-width="1px"></line><line x1="51.5625" y1="0" x2="46.5625" y2="0" style="visibility: inherit;" fill="rgb(0, 0, 0)" stroke="rgb(204, 204, 204)" stroke-width="1px"></line></g><g transform="translate(41.5625, 0)"><text x="0" y="177" dx="0em" dy="0.3em" style="text-anchor: end; visibility: hidden; font-family: Roboto, sans-serif; font-size: 12px; font-weight: 200;" fill="rgb(33, 33, 33)" stroke="none" stroke-width="1px">0.25</text><text x="0" y="164.35714285714286" dx="0em" dy="0.3em" style="text-anchor: end; visibility: inherit; font-family: Roboto, sans-serif; font-size: 12px; font-weight: 200;" fill="rgb(33, 33, 33)" stroke="none" stroke-width="1px">0.3</text><text x="0" y="151.71428571428572" dx="0em" dy="0.3em" style="text-anchor: end; visibility: hidden; font-family: Roboto, sans-serif; font-size: 12px; font-weight: 200;" fill="rgb(33, 33, 33)" stroke="none" stroke-width="1px">0.35</text><text x="0" y="139.07142857142856" dx="0em" dy="0.3em" style="text-anchor: end; visibility: inherit; font-family: Roboto, sans-serif; font-size: 12px; font-weight: 200;" fill="rgb(33, 33, 33)" stroke="none" stroke-width="1px">0.4</text><text x="0" y="126.42857142857142" dx="0em" dy="0.3em" style="text-anchor: end; visibility: hidden; font-family: Roboto, sans-serif; font-size: 12px; font-weight: 200;" fill="rgb(33, 33, 33)" stroke="none" stroke-width="1px">0.45</text><text x="0" y="113.78571428571428" dx="0em" dy="0.3em" style="text-anchor: end; visibility: inherit; font-family: Roboto, sans-serif; font-size: 12px; font-weight: 200;" fill="rgb(33, 33, 33)" stroke="none" stroke-width="1px">0.5</text><text x="0" y="101.14285714285714" dx="0em" dy="0.3em" style="text-anchor: end; visibility: hidden; font-family: Roboto, sans-serif; font-size: 12px; font-weight: 200;" fill="rgb(33, 33, 33)" stroke="none" stroke-width="1px">0.55</text><text x="0" y="88.5" dx="0em" dy="0.3em" style="text-anchor: end; visibility: inherit; font-family: Roboto, sans-serif; font-size: 12px; font-weight: 200;" fill="rgb(33, 33, 33)" stroke="none" stroke-width="1px">0.6</text><text x="0" y="75.85714285714285" dx="0em" dy="0.3em" style="text-anchor: end; visibility: hidden; font-family: Roboto, sans-serif; font-size: 12px; font-weight: 200;" fill="rgb(33, 33, 33)" stroke="none" stroke-width="1px">0.65</text><text x="0" y="63.21428571428572" dx="0em" dy="0.3em" style="text-anchor: end; visibility: inherit; font-family: Roboto, sans-serif; font-size: 12px; font-weight: 200;" fill="rgb(33, 33, 33)" stroke="none" stroke-width="1px">0.7</text><text x="0" y="50.57142857142857" dx="0em" dy="0.3em" style="text-anchor: end; visibility: hidden; font-family: Roboto, sans-serif; font-size: 12px; font-weight: 200;" fill="rgb(33, 33, 33)" stroke="none" stroke-width="1px">0.75</text><text x="0" y="37.92857142857141" dx="0em" dy="0.3em" style="text-anchor: end; visibility: inherit; font-family: Roboto, sans-serif; font-size: 12px; font-weight: 200;" fill="rgb(33, 33, 33)" stroke="none" stroke-width="1px">0.8</text><text x="0" y="25.285714285714274" dx="0em" dy="0.3em" style="text-anchor: end; visibility: hidden; font-family: Roboto, sans-serif; font-size: 12px; font-weight: 200;" fill="rgb(33, 33, 33)" stroke="none" stroke-width="1px">0.85</text><text x="0" y="12.642857142857117" dx="0em" dy="0.3em" style="text-anchor: end; visibility: inherit; font-family: Roboto, sans-serif; font-size: 12px; font-weight: 200;" fill="rgb(33, 33, 33)" stroke="none" stroke-width="1px">0.9</text><text x="0" y="0" dx="0em" dy="0.3em" style="text-anchor: end; visibility: hidden; font-family: Roboto, sans-serif; font-size: 12px; font-weight: 200;" fill="rgb(33, 33, 33)" stroke="none" stroke-width="1px">0.95</text></g><line x1="51.5625" y1="0" x2="51.5625" y2="177" fill="rgb(0, 0, 0)" stroke="rgb(204, 204, 204)" stroke-width="1px"></line></g></g><g transform="translate(51, 0)" clip-path="url(#clip_0)"><clipPath id="clip_0"><rect width="278" height="177"></rect></clipPath><g><g><g><line x1="0" y1="0" x2="0" y2="177" fill="rgb(0, 0, 0)" stroke="rgb(66, 66, 66)" stroke-width="1px" opacity="0.25"></line><line x1="30.9375" y1="0" x2="30.9375" y2="177" fill="rgb(0, 0, 0)" stroke="rgb(66, 66, 66)" stroke-width="1px" opacity="0.25"></line><line x1="61.875" y1="0" x2="61.875" y2="177" fill="rgb(0, 0, 0)" stroke="rgb(66, 66, 66)" stroke-width="1px" opacity="0.25"></line><line x1="92.8125" y1="0" x2="92.8125" y2="177" fill="rgb(0, 0, 0)" stroke="rgb(66, 66, 66)" stroke-width="1px" opacity="0.25"></line><line x1="123.75" y1="0" x2="123.75" y2="177" fill="rgb(0, 0, 0)" stroke="rgb(66, 66, 66)" stroke-width="1px" opacity="0.25"></line><line x1="154.6875" y1="0" x2="154.6875" y2="177" fill="rgb(0, 0, 0)" stroke="rgb(66, 66, 66)" stroke-width="1px" opacity="0.25"></line><line x1="185.625" y1="0" x2="185.625" y2="177" fill="rgb(0, 0, 0)" stroke="rgb(66, 66, 66)" stroke-width="1px" opacity="0.25"></line><line x1="216.5625" y1="0" x2="216.5625" y2="177" fill="rgb(0, 0, 0)" stroke="rgb(66, 66, 66)" stroke-width="1px" opacity="0.25"></line><line x1="247.5" y1="0" x2="247.5" y2="177" fill="rgb(0, 0, 0)" stroke="rgb(66, 66, 66)" stroke-width="1px" opacity="0.25"></line><line x1="278.4375" y1="0" x2="278.4375" y2="177" fill="rgb(0, 0, 0)" stroke="rgb(66, 66, 66)" stroke-width="1px" opacity="0.25"></line></g><g><line x1="0" y1="177" x2="278.4375" y2="177" fill="rgb(0, 0, 0)" stroke="rgb(66, 66, 66)" stroke-width="1px" opacity="0.25"></line><line x1="0" y1="164.35714285714286" x2="278.4375" y2="164.35714285714286" fill="rgb(0, 0, 0)" stroke="rgb(66, 66, 66)" stroke-width="1px" opacity="0.25"></line><line x1="0" y1="151.71428571428572" x2="278.4375" y2="151.71428571428572" fill="rgb(0, 0, 0)" stroke="rgb(66, 66, 66)" stroke-width="1px" opacity="0.25"></line><line x1="0" y1="139.07142857142856" x2="278.4375" y2="139.07142857142856" fill="rgb(0, 0, 0)" stroke="rgb(66, 66, 66)" stroke-width="1px" opacity="0.25"></line><line x1="0" y1="126.42857142857142" x2="278.4375" y2="126.42857142857142" fill="rgb(0, 0, 0)" stroke="rgb(66, 66, 66)" stroke-width="1px" opacity="0.25"></line><line x1="0" y1="113.78571428571428" x2="278.4375" y2="113.78571428571428" fill="rgb(0, 0, 0)" stroke="rgb(66, 66, 66)" stroke-width="1px" opacity="0.25"></line><line x1="0" y1="101.14285714285714" x2="278.4375" y2="101.14285714285714" fill="rgb(0, 0, 0)" stroke="rgb(66, 66, 66)" stroke-width="1px" opacity="0.25"></line><line x1="0" y1="88.5" x2="278.4375" y2="88.5" fill="rgb(0, 0, 0)" stroke="rgb(66, 66, 66)" stroke-width="1px" opacity="0.25"></line><line x1="0" y1="75.85714285714285" x2="278.4375" y2="75.85714285714285" fill="rgb(0, 0, 0)" stroke="rgb(66, 66, 66)" stroke-width="1px" opacity="0.25"></line><line x1="0" y1="63.21428571428572" x2="278.4375" y2="63.21428571428572" fill="rgb(0, 0, 0)" stroke="rgb(66, 66, 66)" stroke-width="1px" opacity="0.25"></line><line x1="0" y1="50.57142857142857" x2="278.4375" y2="50.57142857142857" fill="rgb(0, 0, 0)" stroke="rgb(66, 66, 66)" stroke-width="1px" opacity="0.25"></line><line x1="0" y1="37.92857142857141" x2="278.4375" y2="37.92857142857141" fill="rgb(0, 0, 0)" stroke="rgb(66, 66, 66)" stroke-width="1px" opacity="0.25"></line><line x1="0" y1="25.285714285714274" x2="278.4375" y2="25.285714285714274" fill="rgb(0, 0, 0)" stroke="rgb(66, 66, 66)" stroke-width="1px" opacity="0.25"></line><line x1="0" y1="12.642857142857117" x2="278.4375" y2="12.642857142857117" fill="rgb(0, 0, 0)" stroke="rgb(66, 66, 66)" stroke-width="1px" opacity="0.25"></line><line x1="0" y1="0" x2="278.4375" y2="0" fill="rgb(0, 0, 0)" stroke="rgb(66, 66, 66)" stroke-width="1px" opacity="0.25"></line></g></g></g><g><g><line x1="0" y1="240.21428571428572" x2="278.4375" y2="240.21428571428572" fill="rgb(0, 0, 0)" stroke="rgb(153, 153, 153)" stroke-width="1.5px"></line></g></g><g><g><line x1="30.9375" y1="0" x2="30.9375" y2="177" fill="rgb(0, 0, 0)" stroke="rgb(153, 153, 153)" stroke-width="1.5px"></line></g></g><g><g><g><g><g><path stroke="rgb(255, 112, 67)" stroke-width="2px" d="M34.94390625,-11.965961483010204L35.25328125,4.296502786431345L35.562656249999996,13.480816060032746L35.87203125,12.664172797043182L36.18140625,17.24338075910526L36.490781250000005,19.558598371600223L36.80015624999999,22.876776590595437L37.109531249999996,28.497268202945783L37.41890625,26.64310129836287L37.72828125,32.975435704792886L38.03765625,36.50151116049002L38.34703125,36.61334834364414L38.65640625,41.84195781325116L38.965781250000006,44.71643606809641L39.275156249999995,45.74768731889648L39.58453125,47.3383060288681L39.89390625,46.62633920684663L40.20328125,44.48971771861373L40.51265625,47.15390607006145L40.82203125,51.94539837654453L41.131406250000005,56.44897586692523L41.44078125,58.56949647279769L41.750156249999996,61.33648170058012L42.05953125,61.41397655700555L42.36890625,49.266595050758404L42.678281250000005,50.643767514869126L42.98765625,50.98396214095295L43.297031249999996,56.39028880444604L43.60640625,61.84676204006307L43.91578125,59.79469940662663L44.22515625,62.534797614072986L44.53453125,66.07185605117105L44.84390625,69.31917561551109L45.15328125,69.35735020486288L45.462656249999995,66.36147162744211L45.77203125,65.07773055857228L46.08140625,62.10773998970105L46.390781249999996,63.63076615106602L46.70015625,64.6902022961266L47.00953125,65.19018467004456L47.318906250000005,64.81590108032458L47.62828124999999,67.65663684069388L47.937656249999996,71.63106928605508L48.24703125,70.46103444130945L48.55640625,70.93478034310874L48.86578125,76.40564181856956L49.17515625,79.7715521073076L49.48453125,78.27473973470178L49.793906250000006,85.40999378703405L50.103281249999995,85.06722826412455L50.41265625,86.80946474974324L50.72203125,88.21609365593943L51.03140625,85.7901669992386L51.34078125,88.59377550886062L51.65015625,92.6281675190942L51.959531250000005,87.86763175077539L52.26890625,89.66925357259265L52.578281249999996,93.24129186131158L52.88765625,91.06809686797278L53.19703125,95.63014288820702L53.506406250000005,100.37508191087L53.81578125,100.78074609035005L54.12515625,102.36867558918361L54.43453125,106.82941813105663L54.743906249999995,104.86095417213458L55.05328125,103.50073039251068L55.36265625,106.69193461454127L55.67203125,102.95021154234537L55.98140625,101.48974968726986L56.29078125,100.05705837875507L56.60015625,101.34337235117752L56.90953125,104.75604830160617L57.218906249999996,106.75341768079498L57.52828125,110.29345590480267L57.83765625,109.42875402847076L58.147031250000005,109.30056706475703L58.45640624999999,111.96520473603898L58.765781249999996,114.02707905284971L59.07515625,117.42216846856633L59.38453125,118.90857124889929L59.69390625,119.14897919378558L60.00328125,114.90414045604055L60.31265625,120.48082659284039L60.622031250000006,120.32279311203816L60.931406249999995,118.86083182785084L61.24078125,118.43255247018354L61.55015625,119.59926512700433L61.85953125,117.90609254499401L62.16890625,116.32110874518402L62.47828125,117.23568189199696L62.787656250000005,119.81628769839791L63.09703125,119.03312040689579L63.406406249999996,123.03471729522171L63.71578125,123.60830006731968L64.02515625,118.20857458466627L64.33453125,118.06831469542671L64.64390625,115.74337324827758L64.95328125,118.33889396302098L65.26265625,119.24621952873073L65.57203125,121.64208949388028L65.88140625,124.316610610031L66.19078125,122.35437285634453L66.50015625,122.2389954312597L66.80953124999999,120.99893053504125L67.11890625,119.83471134469005L67.42828125,119.26747334868196L67.73765625,121.8981463961034L68.04703125,126.1084280726365L68.35640624999999,128.4119584545013L68.66578125,123.56447550476976L68.97515625,122.37186846200883L69.28453125,127.74280491509592L69.59390625,128.27632590470134L69.90328124999999,128.25179338996915L70.21265625,125.3767307824894L70.52203125,124.16222988868637L70.83140625,125.6552404260075L71.14078125,125.2760675316883L71.45015625,125.14585007055172L71.75953125000001,125.81270488480581L72.06890625000001,129.13567427452884L72.37828125,127.26087130954895L72.68765624999999,132.4314590189774L72.99703124999999,129.98822567171229L73.30640625,124.82884348898665L73.61578125,125.12640573832545L73.92515625,125.72770056023941L74.23453125,126.54743054446428L74.54390624999999,128.5114819224885L74.85328125,130.0334817555417L75.16265625,132.14936609189925L75.47203125,133.41349809667767L75.78140625,136.48995581789453L76.09078125,137.92838558185568L76.40015625000001,137.3174094203534L76.70953125000001,138.0061906653128L77.01890624999999,136.39024102809066L77.32828124999999,134.2347040728622L77.63765624999999,135.24215182484264L77.94703125,136.30004836980572L78.25640625,136.23248338107425L78.56578125,139.4266565287361L78.87515625,136.93859852305263L79.18453125,136.3168730179399L79.49390625,137.35644046306192L79.80328125,137.81770757511433L80.11265625,136.85451469908975L80.42203125,140.56163815995262L80.73140625,141.47624756130276L81.04078125000001,141.1968424938652L81.35015625000001,140.2611246854725L81.65953125,140.5855311296211L81.96890624999999,141.0140177436623L82.27828124999999,139.93851230311114L82.58765625,136.1423967024037L82.89703125,133.94961884858301L83.20640625,134.91867698490162L83.51578125,137.41709911552223L83.82515625,139.66229818726444L84.13453125,140.39974390886005L84.44390625,141.55872363018344L84.75328125,144.9691445854489L85.06265625,143.5282471025866L85.37203125,143.07282339942603L85.68140625000001,141.50267304342563L85.99078125,143.4485278006375L86.30015625,141.7419433417649L86.60953124999999,141.16761652366702L86.91890624999999,139.10863580887207L87.22828125,138.52376174423765L87.53765625,139.27537791767773L87.84703125,141.78896134740404L88.15640625,143.02147549861164L88.46578125,140.72905533085077L88.77515625000001,142.90861404281742L89.08453125,141.85690615040335L89.39390625,139.4360249470267L89.70328125,144.07036464737274L90.01265625,145.0415884301364L90.32203125,143.87494817390694L90.63140625,142.13947331999248L90.94078125,140.1178863803502L91.25015625,140.77869350330906L91.55953124999999,142.8297588470307L91.86890625,142.75515835880458L92.17828125,143.86846193738882L92.48765625,145.50732343492908L92.79703125,147.22719464956526L93.10640625,146.9487955875155L93.41578125000001,146.31766670558022L93.72515625000001,147.89889411525402L94.03453125,150.22907155818197L94.34390624999999,150.39762418820618L94.65328124999999,151.73769007876865L94.96265625,148.8279620675423L95.27203125,146.04105209177945L95.58140625,144.9920959132599L95.89078125,148.72351658006914L96.20015624999999,150.00517150131537L96.50953125,148.8621146155883L96.81890625,151.13193851125598L97.12828125,151.89271067371243L97.43765625,147.30705012554094L97.74703125,147.74639645961278L98.05640625000001,148.10611797590892L98.36578125000001,150.0821135627703L98.67515624999999,146.1768158241028L98.98453124999999,147.32559503272088L99.29390624999999,146.69547980520076L99.60328125,149.41304940364245L99.91265625,149.2438749455302L100.22203125,150.12593376193917L100.53140625,149.7446780280397L100.84078125,151.3313181377554L101.15015625,154.65662010941955L101.45953125,150.26875154890195L101.76890625,147.49211002505083L102.07828125,148.37115216239334L102.38765625,149.00586815552055L102.69703125000001,151.5010970142339L103.00640625000001,146.79041141056996L103.31578125,141.76075452777988L103.62515624999999,141.4209840429619L103.93453124999999,142.2250045514921L104.24390625,141.28126486571975L104.55328125,140.8914234527745L104.86265625,143.15183019315845L105.17203125,144.85977278924798L105.48140625,141.51352250868737L105.79078125,141.30444862677595L106.10015625,143.4208628991992L106.40953125,142.27766217349475L106.71890625,145.7307897183806L107.02828125,145.01649884508822L107.33765625000001,145.8115882302075L107.64703125,150.3210562465297L107.95640625,154.5023264508924L108.26578124999999,154.53259598996272L108.57515624999999,149.64673365737897L108.88453125,150.88870553893815L109.19390625,146.21091505209105L109.50328125,149.26413299206024L109.81265625,148.6779986849358L110.12203125,149.75127643190547L110.43140625000001,148.52807303573326L110.74078125,146.30568454788366L111.05015625,147.72640104539366L111.35953125,146.97461266528725L111.66890625,148.12903898995103L111.97828125,149.95110781046907L112.28765625,147.87312699502888L112.59703125,151.47884831089914L112.90640625,151.75413158349818L113.21578124999999,149.80251195063622L113.52515625,149.18955194116748L113.83453125,153.3302585619925L114.14390625,154.4091272010775L114.45328125,155.32025018062424L114.76265625,156.42291013435263L115.07203125000001,155.0072399073415L115.38140625,154.13974900462807L115.69078125,155.2307311568346L116.00015625,155.46679202757394L116.30953124999999,155.3720658543236L116.61890625,152.96968894564841L116.92828125,154.3779624339054L117.23765625,152.7027342272892L117.54703125,152.88722985533016L117.85640624999999,153.5981782767006L118.16578125,157.0420868145551L118.47515625,155.79145072383437L118.78453125,157.9881001926995L119.09390625,159.04882607734848L119.40328125,155.8684474750387L119.71265625000001,157.1322442230854L120.02203125000001,156.45614729234927L120.33140625,157.52596097108764L120.64078124999999,159.51802895275122L120.95015624999999,156.80740136474503L121.25953125,157.60187508888836L121.56890625,155.91320646796444L121.87828125,156.02236487776617L122.18765625,154.00971957970864L122.49703125,152.13522028795688L122.80640625,152.94199163496722L123.11578125,151.45009859924792L123.42515625,152.27971355206367L123.73453125,151.79335535986607L124.04390625,155.10838200872598L124.35328125000001,156.1881970912884L124.66265625000001,155.93909613110927L124.97203124999999,157.12664287322602L125.28140624999999,157.8834629256699L125.59078124999999,153.80136495823703L125.90015625,151.4872459326176L126.20953125,153.8769002120658L126.51890625,156.44241475315394L126.82828125,155.82872921974362L127.13765625,156.20703746527968L127.44703125,156.20970784217442L127.75640625,158.50892101537522L128.06578125,160.63101373372706L128.37515625,158.70018845950503L128.68453125,157.87782302846614L128.99390625,158.19578185715906L129.30328125,159.15777884319036L129.61265625000001,156.96930380613654L129.92203125,154.34972212966625L130.23140625,154.768201640499L130.54078125,154.58297660340295L130.85015625,156.11616501529386L131.15953125000001,155.43558846306428L131.46890625,155.36080107411433L131.77828125,156.7944690272168L132.08765625,156.6452105249225L132.39703125,159.86748219759815L132.70640625,159.28699195778444L133.01578125,158.68259150536787L133.32515625,156.5682466602866L133.63453125,157.97218341517288L133.94390625,156.3210567816793L134.25328125000001,157.545936690849L134.56265625,158.38215087733727L134.87203125,158.31115184526308L135.18140625,159.51314456471772L135.49078125,158.83099433904272L135.80015625,160.01918553955016L136.10953125,158.4811204105842L136.41890625,157.6336265769311L136.72828125,159.2567351185165L137.03765625,148.86575469511044L137.34703125,147.6633190086578L137.65640625,147.4256725685738L137.96578125,145.18134848252873L138.27515625,142.14024866294145L138.58453125,141.27425722454186L138.89390625000001,141.43458114455376L139.20328125,137.58277033118827L139.51265625000002,140.86014209171617L139.82203125,141.99718872297098L140.13140625000003,146.0857385168059L140.44078125,148.1076558316357L140.75015624999997,151.88718651696826L141.05953125,153.24777785433488L141.36890624999998,155.30515285939157L141.67828125,156.30128903412074L141.98765625,157.369320868222L142.29703125,158.1237365783433L142.60640625,158.37759344465613L142.91578125,158.81538513456886L143.22515625,157.1900221603987L143.53453125,156.4126685337096L143.84390625,158.4743611738604L144.15328125,157.30187227622653L144.46265625,158.74134163181432L144.77203125,160.34505605428828L145.08140625000001,161.48998697664558L145.39078125,161.31225064521476L145.70015625,160.3504933816008L146.00953125,159.25365149048983L146.31890625,160.72882111538829L146.62828125000001,160.0303012691955L146.93765625,160.7397433139694L147.24703125000002,160.47058709795718L147.55640625,161.03581204954907L147.86578125,162.25288369026256L148.17515625000001,159.40581612958678L148.48453125,161.0703121664006L148.79390625000002,162.60502024116815L149.10328124999998,162.22523835842856L149.41265625,161.02465116025326L149.72203125,156.90174790560278L150.03140625,158.55251298834042L150.34078125,160.55643127767027L150.65015624999998,162.41603958679477L150.95953125,161.0980621682854L151.26890625,161.6921198500119L151.57828125,161.47655335946132L151.88765625,160.94474519251304L152.19703125,160.01546509837223L152.50640625,162.8982833712661L152.81578125,160.95413410174461L153.12515625,164.8831514976308L153.43453125,165.4113930705036L153.74390625,165.05788410816805L154.05328125,164.71734276141396L154.36265625000001,165.73692903440315L154.67203125,164.79638068560857L154.98140625,164.4200621134798L155.29078125,165.41039613491571L155.60015625,165.66768008406157L155.90953125000001,164.20447886121815L156.21890625,165.12442055508734L156.52828125000002,164.26581445605132L156.83765625,161.3695077886701L157.14703125000003,159.772789641224L157.45640625000001,161.62201715435458L157.76578124999997,161.33466743271788L158.07515625,160.17687046177784L158.38453124999998,162.253728305896L158.69390625,162.7110992439474L159.00328125,160.341348661484L159.31265625,160.57084203230585L159.62203125,163.96576092862293L159.93140624999998,164.722485167267L160.24078125,165.74106646583544L160.55015625,166.7936432421569L160.85953125,167.62910616417057L161.16890625,165.8239380803579L161.47828125,166.44635983542133L161.78765625,164.6815585184512L162.09703125000001,163.7065926042533L162.40640625,162.9083579227869L162.71578125,159.4485776911362L163.02515625,155.6188859312133L163.33453125,158.45616151587257L163.64390625000001,156.87009702739766L163.95328125,156.52745384005442L164.26265625000002,157.26270985790163L164.57203125,158.98164899120712L164.88140625,161.87473568983577L165.19078125000001,161.6357501674328L165.50015625,163.06692855613943L165.80953125000002,162.92786875401447L166.11890624999998,165.0240825152751L166.42828125000003,165.77381816382487L166.73765625,165.77230247780847L167.04703124999997,165.72029478760803L167.35640625,165.83397513447977L167.66578124999998,166.0440690830192L167.97515625,167.23551190073053L168.28453125,167.40428734611044L168.59390625,167.29122137813397L168.90328125,166.22202494018453L169.21265625,166.05076074933345L169.52203125,165.49981016631412L169.83140625,165.54839555451562L170.14078125,165.34566031541573L170.45015625,165.10815280039228L170.75953125,167.83272230413456L171.06890625,166.58960787101157L171.37828125000001,167.7863268422271L171.68765625,166.77026314539822L171.99703125,166.7250661824616L172.30640625,163.7241891539208L172.61578125,163.71664522556563L172.92515625000001,165.92179085976454L173.23453125,168.60065254072293L173.54390625000002,172.17122467373065L173.85328125,171.05995770871618L174.16265625,170.6488245658022L174.47203125000001,172.44669676783758L174.78140624999997,171.80831657370632L175.09078125,171.67640611243667L175.40015624999998,172.39167650170577L175.70953125,171.1814677829335L176.01890625,168.298390528164L176.32828125,168.3553592225664L176.63765625,168.33878578990928L176.94703124999998,170.1590113399298L177.25640625,172.0702112019496L177.56578125,173.3693487959509L177.87515625,171.7349682043436L178.18453125,172.10243071941903L178.49390625,170.76090510981305L178.80328125,170.40815163516928L179.11265625,167.37069420988857L179.42203125,167.69493222818076L179.73140625,165.5984352487301L180.04078125,167.24503652373235L180.35015625,166.3882385056657L180.65953125000001,165.1502352623437L180.96890625,164.0374802119226L181.27828125000002,163.51348834009542L181.58765625,164.48567745804874L181.89703125,162.88553724973593L182.20640625000001,164.76315286161588L182.51578125,167.36155280114465L182.82515625000002,168.38689125988208L183.13453125,168.0513564841179L183.44390625000003,172.23198730837956L183.75328125,170.8490474135889L184.06265624999997,170.59068774647793L184.37203125,160.0801982575408L184.68140624999998,157.01884419795664L184.99078125,159.21119975493426L185.30015625,154.01690279426109L185.60953125,153.21214192328583" style="fill: none;" fill="none"></path></g><g><path stroke="rgb(0, 119, 187)" stroke-width="2px" d="M43.60640625,-3.5286684117575264L43.91578125,1.838395313963761L44.22515625,5.240075842597903L44.53453125,6.94783608878394L44.84390625,11.960292085549739L45.15328125,10.119837601733405L45.462656249999995,14.572804137657567L45.77203125,9.814408447987557L46.08140625,14.160641308104541L46.390781249999996,19.129512147290388L46.70015625,21.485610196710873L47.00953125,21.24372941153733L47.318906250000005,23.586651844030786L47.62828124999999,24.803722679252143L47.937656249999996,25.40184876045561L48.24703125,28.83400614010293L48.55640625,29.357440404065297L48.86578125,31.231487519722116L49.17515625,22.976554261808598L49.48453125,35.6017940001967L49.793906250000006,42.56000872084923L50.103281249999995,43.58532189080206L50.41265625,45.999807023358024L50.72203125,47.40217446288569L51.03140625,46.357003798661694L51.34078125,39.6434429214721L51.65015625,47.694798385111596L51.959531250000005,49.29338631332406L52.26890625,56.158965942777414L52.578281249999996,53.50869609480419L52.88765625,49.214310314789174L53.19703125,49.71750159142216L53.506406250000005,53.96309299941115L53.81578125,58.2182130828302L54.12515625,60.586219659052624L54.43453125,58.0995184672063L54.743906249999995,58.947366059212165L55.05328125,61.83125836702058L55.36265625,60.478612029010115L55.67203125,67.2781899881515L55.98140625,66.82593663066686L56.29078125,65.81370780528482L56.60015625,67.96103554421346L56.90953125,68.59589750270823L57.218906249999996,64.93382917038497L57.52828125,67.04506649233893L57.83765625,66.35250700508354L58.147031250000005,72.21377027627703L58.45640624999999,70.83394948429564L58.765781249999996,69.9562669332597L59.07515625,71.16807196268365L59.38453125,75.45086209442145L59.69390625,77.57930410526606L60.00328125,78.34410846604355L60.31265625,71.46109805670308L60.622031250000006,70.4545505039764L60.931406249999995,73.88004919418356L61.24078125,74.8948690548119L61.55015625,76.96026085429567L61.85953125,76.88374540319806L62.16890625,81.18665170991025L62.47828125,75.61804522979702L62.787656250000005,83.65674409300864L63.09703125,86.3434091016356L63.406406249999996,87.35374938788523L63.71578125,88.38289490375993L64.02515625,87.77728499109281L64.33453125,83.13233423568788L64.64390625,79.04737346033188L64.95328125,80.29363717744991L65.26265625,78.29403098887349L65.57203125,81.34144695423588L65.88140625,79.5018949838688L66.19078125,82.67792797706356L66.50015625,86.26302086655825L66.80953124999999,84.9854218954799L67.11890625,83.41258762193324L67.42828125,81.95308743322597L67.73765625,84.01392267843053L68.04703125,86.25365858665513L68.35640624999999,89.45923540740338L68.66578125,85.9971388342073L68.97515625,91.73384822040482L69.28453125,95.3510705338272L69.59390625,89.74705041769973L69.90328124999999,90.25828695745707L70.21265625,88.23797131534992L70.52203125,90.12706643402241L70.83140625,88.18636160102709L71.14078125,86.53498585143306L71.45015625,87.66534785017825L71.75953125000001,92.90455664319498L72.06890625000001,88.93578148897966L72.37828125,90.56427234846811L72.68765624999999,93.1687951914491L72.99703124999999,95.19881459154531L73.30640625,94.42663388639257L73.61578125,96.0774534398547L73.92515625,99.70722310696004L74.23453125,97.43520011789263L74.54390624999999,100.39023095199603L74.85328125,102.27059442043641L75.16265625,103.85943852465697L75.47203125,103.60887291960158L75.78140625,101.66577131111764L76.09078125,102.0892199362307L76.40015625000001,101.77355777361498L76.70953125000001,101.95905400512011L77.01890624999999,102.3076368130801L77.32828124999999,99.57713436146211L77.63765624999999,100.5381895417975L77.94703125,102.12712440154421L78.25640625,102.28528493543207L78.56578125,102.27518743557434L78.87515625,97.63926076887239L79.18453125,97.36762737545571L79.49390625,103.5601554965908L79.80328125,102.46601373971822L80.11265625,103.18551079984161L80.42203125,105.14755304531504L80.73140625,101.73190764625902L81.04078125000001,102.28421614875133L81.35015625000001,109.80007287448485L81.65953125,105.96156238836976L81.96890624999999,104.165242988093L82.27828124999999,102.65710087397807L82.58765625,106.91569786280716L82.89703125,107.93107731263318L83.20640625,105.14962432882051L83.51578125,105.8610183875101L83.82515625,112.03054233757393L84.13453125,110.15323319313707L84.44390625,108.11769502839401L84.75328125,102.78101949893295L85.06265625,100.39900410091876L85.37203125,101.40725991675855L85.68140625000001,105.2656051149089L85.99078125,104.04504059051474L86.30015625,108.42136018962947L86.60953124999999,108.0756387458861L86.91890624999999,110.58149071273071L87.22828125,106.76431827728922L87.53765625,106.08330313384091L87.84703125,110.23532091220522L88.15640625,110.22779501036415L88.46578125,109.55922490519222L88.77515625000001,104.30554892261844L89.08453125,108.06490397068447L89.39390625,108.3839609667983L89.70328125,106.76322690688954L90.01265625,110.02944474586732L90.32203125,109.78873322025557L90.63140625,111.81161242153759L90.94078125,111.16613667180333L91.25015625,114.45110895190183L91.55953124999999,115.71654904031311L91.86890625,115.40768363901962L92.17828125,118.85112890839827L92.48765625,116.73980930931377L92.79703125,119.22638384990101L93.10640625,118.67401160124832L93.41578125000001,117.59592400045672L93.72515625000001,111.01840363090406L94.03453125,108.0400880396504L94.34390624999999,112.04415051546242L94.65328124999999,118.28253685989195L94.96265625,116.69685497701806L95.27203125,118.57787961597484L95.58140625,114.66687844467732L95.89078125,110.64322211053371L96.20015624999999,109.36893107205186L96.50953125,111.02220449104215L96.81890625,115.25205473285072L97.12828125,115.37738280404304L97.43765625,112.39497524871217L97.74703125,112.76675399083454L98.05640625000001,116.79344784155055L98.36578125000001,119.42595663457422L98.67515624999999,119.52525462042021L98.98453124999999,118.30084749061302L99.29390624999999,119.07002145221323L99.60328125,115.97885410716995L99.91265625,118.5574448118176L100.22203125,121.26674747183463L100.53140625,111.6065092137897L100.84078125,110.79527582747686L101.15015625,110.76257860503932L101.45953125,117.29569355666328L101.76890625,119.22150284574528L102.07828125,118.1213786173571L102.38765625,115.13840020878791L102.69703125000001,120.28490606741033L103.00640625000001,118.92639122909432L103.31578125,120.46728613848592L103.62515624999999,120.7225990092122L103.93453124999999,120.05126934534773L104.24390625,118.30797669291942L104.55328125,118.97817621486796L104.86265625,120.18708023429076L105.17203125,124.66202409522971L105.48140625,126.27348346046097L105.79078125,125.73228164546863L106.10015625,126.03060266310167L106.40953125,120.02075938032299L106.71890625,117.08852959490127L107.02828125,122.18342956961406L107.33765625000001,122.22136618020575L107.64703125,125.3361346596114L107.95640625,124.63773527754567L108.26578124999999,128.4964251765971L108.57515624999999,129.793067637048L108.88453125,125.94407263830159L109.19390625,124.86025060929911L109.50328125,123.0831607716649L109.81265625,125.03728174619661L110.12203125,125.9883455380112L110.43140625000001,126.58651334226273L110.74078125,126.08585247930546L111.05015625,128.8608446825884L111.35953125,129.39002462255442L111.66890625,127.21667236276387L111.97828125,128.18799030722502L112.28765625,124.83845625569927L112.59703125,124.62112429802208L112.90640625,126.07277931268906L113.21578124999999,127.74094706473288L113.52515625,126.9319281202408L113.83453125,127.34402522149227L114.14390625,126.64407536721045L114.45328125,121.61946992648558L114.76265625,120.2551400661557L115.07203125000001,128.23584537506636L115.38140625,131.14133979729561L115.69078125,132.35802154622948L116.00015625,128.44226806689784L116.30953124999999,124.88661687825952L116.61890625,121.38951824799932L116.92828125,125.32842181654512L117.23765625,127.03872361670406L117.54703125,123.70587368371939L117.85640624999999,125.12122698591435L118.16578125,129.34132476514066L118.47515625,130.84308937196934L118.78453125,130.34512477349813L119.09390625,133.35889018997213L119.40328125,132.48563524482304L119.71265625000001,133.46722469226256L120.02203125000001,131.7052898019298L120.33140625,134.81905901490114L120.64078124999999,133.79995733023478L120.95015624999999,133.24912277515068L121.25953125,134.0008222116635L121.56890625,133.57877027115856L121.87828125,135.71514021826766L122.18765625,132.7611222746635L122.49703125,129.107476777508L122.80640625,131.19581024193076L123.11578125,126.69601588453833L123.42515625,132.22151224872204L123.73453125,131.72034257771725L124.04390625,133.07763402364517L124.35328125000001,132.33457242498486L124.66265625000001,134.44812863328443L124.97203124999999,133.53423142502024L125.28140624999999,128.62382066631758L125.59078124999999,128.75890711604794L125.90015625,129.341320151614L126.20953125,130.16721601500578L126.51890625,131.92914503174276L126.82828125,134.3707758166967L127.13765625,135.61260624825994L127.44703125,135.83067965907733L127.75640625,133.64524524792617L128.06578125,131.6054935163192L128.37515625,133.05861714858267L128.68453125,137.22882613084076L128.99390625,137.11063348207261L129.30328125,134.69678405069766L129.61265625000001,133.82160886526466L129.92203125,130.3451591788041L130.23140625,134.2023700306088L130.54078125,137.79492817951007L130.85015625,135.90625074457216L131.15953125000001,131.159218604784L131.46890625,133.24153106109972L131.77828125,133.50847033166608L132.08765625,132.42363482588192L132.39703125,129.96358257116216L132.70640625,136.57376036224142L133.01578125,135.35027799626897L133.32515625,136.847463998918L133.63453125,136.6066625830165L133.94390625,136.59574199928915L134.25328125000001,139.4026605065367L134.56265625,140.60245406653124L134.87203125,140.9395241568595L135.18140625,141.3164564916983L135.49078125,139.39817920962795L135.80015625,134.93411704938646L136.10953125,137.26387774202422L136.41890625,140.8836502030682L136.72828125,139.2646134152271L137.03765625,135.50580918260817L137.34703125,138.12504379432443L137.65640625,137.43230264132984L137.96578125,139.54368967773266L138.27515625,140.15798795966782L138.58453125,138.9167993385786L138.89390625000001,136.45919361654654L139.20328125,138.631332745387L139.51265625000002,144.1265981854402L139.82203125,140.52060970093373L140.13140625000003,141.46288283806098L140.44078125,139.77533169557992L140.75015624999997,136.30325626628093L141.05953125,138.34328218449477L141.36890624999998,136.8283522342318L141.67828125,134.69260453413824L141.98765625,138.21521097474124L142.29703125,138.5609016029918L142.60640625,137.1247732474309L142.91578125,138.5340849538983L143.22515625,133.26430040991636L143.53453125,134.31265414167672L143.84390625,140.4085522028928L144.15328125,141.61047391833472L144.46265625,139.35985150098057L144.77203125,139.31896488250558L145.08140625000001,138.28746645677845L145.39078125,135.99411611829595L145.70015625,140.8735305339275L146.00953125,139.07632163159548L146.31890625,137.12665489141216L146.62828125000001,140.35545748622798L146.93765625,143.64123684258212L147.24703125000002,139.7451016652896L147.55640625,138.6927538687689L147.86578125,142.51976344094038L148.17515625000001,143.90886923903867L148.48453125,142.1696736511524L148.79390625000002,142.5029130857208L149.10328124999998,141.32992208146308L149.41265625,139.88024091465368L149.72203125,137.76217168246137L150.03140625,141.89084050972207L150.34078125,138.51606209059494L150.65015624999998,140.49014475418804L150.95953125,141.99859457468622L151.26890625,145.53357699665804L151.57828125,141.92921111419682L151.88765625,143.77814104049904L152.19703125,145.2736388489404L152.50640625,145.24925142963946L152.81578125,143.75179829689566L153.12515625,144.8278806153782L153.43453125,143.71099206725987L153.74390625,143.47588759357726L154.05328125,142.59906636635318L154.36265625000001,144.88967882285712L154.67203125,141.85699761154942L154.98140625,141.01038426816365L155.29078125,141.14149138809893L155.60015625,143.21408572739497L155.90953125000001,139.52886189445678L156.21890625,140.06040478942543L156.52828125000002,141.75628022839703L156.83765625,143.23699667745876L157.14703125000003,137.9492687658398L157.45640625000001,137.07847503195063L157.76578124999997,138.82600183792542L158.07515625,140.5831207075744L158.38453124999998,145.81902291326185L158.69390625,144.2432062435484L159.00328125,145.3374635479991L159.31265625,143.0451119177257L159.62203125,145.92268915882286L159.93140624999998,144.58116548348667L160.24078125,146.40882241353341L160.55015625,146.37184080854027L160.85953125,142.99416305135384L161.16890625,145.48154613509763L161.47828125,148.29824189113288L161.78765625,144.6965581471298L162.09703125000001,146.92439930491804L162.40640625,147.5555999057396L162.71578125,146.87706939184943L163.02515625,146.49897871581993L163.33453125,148.5287589713318L163.64390625000001,145.2275794045472L163.95328125,146.1128424463477L164.26265625000002,146.30750882288936L164.57203125,148.33165317742132L164.88140625,147.90504466276226L165.19078125000001,147.77167985393834L165.50015625,144.0755805993758L165.80953125000002,143.23683003845196L166.11890624999998,144.83514410924627L166.42828125000003,143.52141362829036L166.73765625,145.28794156893764L167.04703124999997,143.8941070588084L167.35640625,139.8036610710754L167.66578124999998,143.2229344248511L167.97515625,145.1605521695798L168.28453125,146.37210204770648L168.59390625,146.27834876775177L168.90328125,148.12639387913774L169.21265625,143.2239449392707L169.52203125,144.96278189077253L169.83140625,147.15706434690946L170.14078125,141.9364994967903L170.45015625,146.70065018989766L170.75953125,143.52892881649464L171.06890625,144.86254632313262L171.37828125000001,144.46725764859954L171.68765625,146.75337543566283L171.99703125,146.66378967196158L172.30640625,144.5959365041025L172.61578125,148.2068301209107L172.92515625000001,146.6234754696749L173.23453125,148.55235874505416L173.54390625000002,147.37873065042584L173.85328125,146.6290229124483L174.16265625,149.1908256712862L174.47203125000001,148.994846149199L174.78140624999997,149.27104856179352L175.09078125,151.43594193053534L175.40015624999998,151.86999919512104L175.70953125,150.38439886356048L176.01890625,152.39772802769505L176.32828125,145.7841199800419L176.63765625,147.5809122558605L176.94703124999998,145.39776478199616L177.25640625,146.1891543472828L177.56578125,148.37878566839993L177.87515625,147.36043384161243L178.18453125,145.48969886082116L178.49390625,146.37122854645244L178.80328125,148.17760633688854L179.11265625,149.591534160573L179.42203125,151.36383767817622L179.73140625,149.78275727140857L180.04078125,151.04857675718893L180.35015625,152.44045787488852L180.65953125000001,150.91778621507373L180.96890625,149.9468363132041L181.27828125000002,149.53399512803324L181.58765625,149.5419023815652L181.89703125,148.92993162603906L182.20640625000001,149.83536819877125L182.51578125,146.95735743883105L182.82515625000002,146.0849761747462L183.13453125,148.87241564548012L183.44390625000003,149.91589605168954L183.75328125,150.63901134175504L184.06265624999997,149.8003639756757L184.37203125,151.56552978459277L184.68140624999998,151.33413549212298L184.99078125,152.41803442378875L185.30015625,148.55791980929055L185.60953125,146.45952512566376L185.91890625,145.6674262661669L186.22828124999998,148.38333161432857L186.53765625,150.65744500357357L186.84703125,147.11945038436917L187.15640625,149.6742500797284L187.46578125,149.3512031618834L187.77515625,151.36982919393748L188.08453125,150.15486746799212L188.39390625000001,146.97378797565088L188.70328125,150.38978768982147L189.01265625,151.10438169001137L189.32203125,156.01703313649566L189.63140625,159.60159515451198L189.94078125000001,156.53181367412267L190.25015625,153.3661702097019L190.55953125000002,152.71408611828875L190.86890625,153.90749118674103L191.17828125,149.04016410422165L191.48765625000001,148.91115299444783L191.79703125,151.57410251844755L192.10640625000002,151.2862064925618L192.41578124999998,151.26641706921805L192.72515625,151.43611231027933L193.03453125,151.34225668741314L193.34390625,149.76646582708304L193.65328125,149.54511468664137L193.96265624999998,152.66185248867723L194.27203125,154.99852566279034L194.58140625,153.3362123408483L194.89078125,152.30742748183835L195.20015625,154.58131175826261L195.50953125,154.8407204211881L195.81890625,153.37479104678897L196.12828125,154.14191101837793L196.43765625,153.4374967302088L196.74703125,154.48621151444254L197.05640625,150.25100302626282L197.36578125,152.0886405021013L197.67515625000001,154.8503043955601L197.98453125,156.1927523148252L198.29390625,158.90893557348724L198.60328125,154.80950725653523L198.91265625,152.15931686678212L199.22203125000001,155.6013702719814L199.53140625,152.95271980069234L199.84078125000002,153.0957527221229L200.15015625,152.82487924121878L200.45953125000003,154.10250853007304L200.76890625000001,157.09198782234267L201.07828124999997,156.48537656385736L201.38765625,158.73931038467651L201.69703124999998,157.44204166328905L202.00640625,157.11578203573566L202.31578125,156.6514226958949L202.62515625,158.20443561895055L202.93453125,159.17494688252341L203.24390624999998,157.2031505556942L203.55328125,155.3858144723031L203.86265625,158.1525340684701L204.17203125,158.07340673599194L204.48140625,155.94159863672502L204.79078125,155.16881536753937L205.10015625,156.07763395580542L205.40953125,153.87430975872297L205.71890625,155.50532069058602L206.02828125,155.37157210261455L206.33765625,155.7540680202891L206.64703125,155.08526735843375L206.95640625000001,156.63482772400388L207.26578125,159.56178260329182L207.57515625000002,156.03998141917137L207.88453125,156.6325684258153L208.19390625,155.54174876793513L208.50328125000001,156.50424982146706L208.81265625,155.17051748825313L209.12203125000002,158.97018720656837L209.43140625,157.310243032363L209.74078125000003,153.69632470896485L210.05015625,153.19682745766173L210.35953124999997,147.5192101141561L210.66890625,150.36584279354335L210.97828124999998,155.92008616746446L211.28765625,156.68354807542636L211.59703125,153.9931338886943L211.90640625,152.81946635777342L212.21578125,154.116544750539L212.52515625,154.9164283744312L212.83453125,154.44257626280373L213.14390625,154.87477426990125L213.45328125,153.60523209644197L213.76265625,157.79953341459364L214.07203125,159.56209809560937L214.38140625,159.31381243710481L214.69078125000001,155.81824440931706L215.00015625,154.35847458688534L215.30953125,155.7752741729675L215.61890625,156.09737053162888L215.92828125,159.61330657220674L216.23765625000001,157.64494403014655L216.54703125,155.07339138871478L216.85640625000002,153.40314213684826L217.16578125,155.141487433026L217.47515625,158.66538355644843L217.78453125000001,155.7771961393306L218.09390625,159.37842913284L218.40328125000002,159.35277330083395L218.71265624999998,161.0465888861411L219.02203125,161.94481143257576L219.33140625,160.81628984920545L219.64078125,156.40585262689126L219.95015625,158.84007100530346L220.25953124999998,158.16670331433428L220.56890625,158.2900210342451L220.87828125,159.30567348387842L221.18765625,158.47209924179234L221.49703125,160.59025918758377L221.80640625,153.7307353898587L222.11578125,153.61562567262064L222.42515625,151.83198531794332L222.73453125,157.10466129293997L223.04390625,154.86679420724656L223.35328125,156.9901842534423L223.66265625,159.36135426776036L223.97203125000001,157.02352500414418L224.28140625,156.15743472847683L224.59078125,155.69595639936702L224.90015625,157.12540888039385L225.20953125,158.06125301866598L225.51890625000001,157.20067981927912L225.82828125,158.95834795436284L226.13765625000002,157.59607440966124L226.44703125,160.48302802287193L226.75640625000003,160.63500883400317L227.06578125000001,161.62365153137202L227.37515624999997,158.37797949903648L227.68453125,159.75031255598927L227.99390624999998,156.00683388404542L228.30328125,156.7972359632147L228.61265625,155.05158375521088L228.92203125,153.39489850975536L229.23140625,154.2118046888643L229.54078124999998,157.16148711155597L229.85015625,157.15281904967784L230.15953125,159.26005215698066L230.46890625,162.97673863579126L230.77828125,162.06675045223326L231.08765625,163.80254044168254L231.39703125,160.4290954336366L231.70640625000001,160.43415035566164L232.01578125,159.87204575225567L232.32515625,159.63105043495892L232.63453125,157.83573649702447L232.94390625,160.90253352492692L233.25328125000001,160.3461651730431L233.56265625,160.67988023328144L233.87203125000002,162.07339514338247L234.18140625,160.46130815514744L234.49078125,158.92168711899157L234.80015625000001,159.99414748374824L235.10953125,158.9300453500828L235.41890625000002,157.61371801970827L235.72828124999998,154.4907058568929L236.03765625000003,154.61313154565386L236.34703125,157.08480894554484L236.65640624999997,159.20785809918965L236.96578125,158.9294146074168L237.27515624999998,158.6248847383532L237.58453125,159.91623399400635L237.89390625,154.16282851373083L238.20328125,154.04234355528396L238.51265625,159.91410686022442L238.82203125,160.22572002251218L239.13140625,162.72017368765805L239.44078125,162.27632605999275L239.75015625,161.26182197143942L240.05953125,164.1670244304386L240.36890625,163.3172127108602L240.67828125,164.98528128952466L240.98765625000001,163.6746336891266L241.29703125,164.36131156102323L241.60640625,164.78529406641937L241.91578125,162.8305059223389L242.22515625,159.6254305025774L242.53453125000001,159.44297311532384L242.84390625,161.62645254884038L243.15328125000002,164.6860292779353L243.46265625,166.67592922439428L243.77203125,167.96524742086595L244.08140625000001,163.77580047324648L244.39078124999997,161.15632161134263L244.70015625,163.94773158723666L245.00953124999998,164.6042291514038L245.31890625,164.6899193435372L245.62828125,163.61271319190288L245.93765625,164.19986794488545L246.24703125,162.18718645119532L246.55640624999998,163.00453674453246L246.86578125,161.50360010147455L247.17515625,163.3996289377234L247.48453125,160.4584690284197L247.79390625,163.8573548117727L248.10328125,161.69101340460907L248.41265625,158.3906410219132L248.72203125,156.5945395927175L249.03140625,158.0350906449029L249.34078125,159.8699358972676L249.65015625,161.25401468540403L249.95953125,161.99708064646057L250.26890625000001,162.35127368803853L250.57828125,162.68673645654087L250.88765625000002,161.25560617991118L251.19703125,160.8655328681084L251.50640625,160.65798149372927L251.81578125000001,162.32450381096817L252.12515625,166.1391420042824L252.43453125000002,163.28666402386068L252.74390625,162.8066632325352L253.05328125000003,163.65365523801788L253.36265625,160.35552303020089L253.67203124999997,161.80333610617052L253.98140625,160.64866233698L254.29078124999998,163.65912081328483L254.60015625,162.1859637215241L254.90953125,161.5428933143746L255.21890625,162.13436894826307L255.52828125,160.5255485675041L255.83765624999998,160.50140271279753L256.14703125,160.8848228487413L256.45640625,164.7309613281598L256.76578125000003,167.02624964695974L257.07515625,166.12870523918752L257.38453125,165.49390512119325L257.69390625,166.0887152108756L258.00328125,165.20619973687147L258.31265625,162.0730595350561L258.62203124999996,160.57900479454725L258.93140625,164.56651780701748L259.24078125,164.88484303600407L259.55015625,165.66643745484325L259.85953125,164.7511588603059L260.16890625,165.49871903733353L260.47828125,161.74261616854292L260.78765625,163.0933845778184L261.09703125,160.20522489529964L261.40640625,159.6112220599607L261.71578125,160.04380225624774L262.02515625,162.62431304148515L262.33453125,164.62605343498652L262.64390625,162.61665660965875L262.95328125000003,163.93833358611295" style="fill: none;" fill="none"></path></g></g></g></g><g opacity="0.2"><g><g><g><path stroke="rgb(255, 112, 67)" stroke-width="2px" d="M34.634531249999995,-11.174776349748901L34.94390625,9.401519588061728L35.25328125,28.658339330128257L35.562656249999996,27.24649015494755L35.87203125,11.439783862658896L36.18140625,24.110254934855856L36.490781250000005,23.030836956841593L36.80015624999999,27.8535384280341L37.109531249999996,36.92749188627515L37.41890625,23.861952628408144L37.72828125,42.473728946277056L38.03765625,41.79055472782678L38.34703125,36.781102793557295L38.65640625,49.684834854943404L38.965781250000006,49.02814119202748L39.275156249999995,47.294561556407366L39.58453125,49.72423165185109L39.89390625,45.55838962963647L40.20328125,41.284786667142576L40.51265625,51.15018771375928L40.82203125,59.132635882922564L41.131406250000005,63.20434156485966L41.44078125,61.750277229717796L41.750156249999996,65.48695942333765L42.05953125,61.530218839645386L42.36890625,31.045522979327597L42.678281250000005,52.7095261982509L42.98765625,51.494254078183836L43.297031249999996,64.49977878161839L43.60640625,70.03147188254765L43.91578125,56.716605458940776L44.22515625,66.64494492326463L44.53453125,71.3774437052863L44.84390625,74.19015496117727L45.15328125,69.41461208888462L45.462656249999995,61.86765376159123L45.77203125,63.1521189553397L46.08140625,57.652754136494224L46.390781249999996,65.91530539308275L46.70015625,66.27935651370457L47.00953125,65.94015823091779L47.318906250000005,64.25447569574628L47.62828124999999,71.9177404812404L47.937656249999996,77.59271795409066L48.24703125,68.70598217419216L48.55640625,71.64539919580731L48.86578125,84.61193403175899L49.17515625,84.82041754041398L49.48453125,76.02952117579323L49.793906250000006,96.11287486553192L50.103281249999995,84.5530799797603L50.41265625,89.4228194781712L50.72203125,90.32603701523371L51.03140625,82.1512770141874L51.34078125,92.79918827329362L51.65015625,98.67975553444452L51.959531250000005,80.72682809829712L52.26890625,92.37168630531855L52.578281249999996,98.59934929439L52.88765625,87.80830437796456L53.19703125,102.47321191855839L53.506406250000005,107.49249044486454L53.81578125,101.38924235957009L54.12515625,104.75056983743394L54.43453125,113.52053194386619L54.743906249999995,101.90825823375157L55.05328125,101.46039472307477L55.36265625,111.47874094758714L55.67203125,97.33762693405151L55.98140625,99.29905690465654L56.29078125,97.90802141598292L56.60015625,103.27284330981118L56.90953125,109.87506222724915L57.218906249999996,109.74947174957819L57.52828125,115.60351324081421L57.83765625,108.1317012139729L58.147031250000005,109.1082866191864L58.45640624999999,115.96216124296188L58.765781249999996,117.11989052806581L59.07515625,122.51480259214128L59.38453125,121.13817541939872L59.69390625,119.50959111111504L60.00328125,108.536882349423L60.31265625,128.8458557980401L60.622031250000006,120.08574289083481L60.931406249999995,116.66788990156991L61.24078125,117.79013343368257L61.55015625,121.34933411223548L61.85953125,115.36633367197854L62.16890625,113.943633045469L62.47828125,118.60754161221641L62.787656250000005,123.68719640799931L63.09703125,117.85836946964264L63.406406249999996,129.0371126277106L63.71578125,124.4686742254666L64.02515625,110.10898636068616L64.33453125,117.85792486156735L64.64390625,112.25596107755388L64.95328125,122.2321750351361L65.26265625,120.60720787729535L65.57203125,125.23589444160461L65.88140625,128.32839228425706L66.19078125,119.41101622581482L66.50015625,122.06592929363251L66.80953124999999,119.1388331907136L67.11890625,118.08838255916322L67.42828125,118.41661635466984L67.73765625,125.84415596723557L68.04703125,132.42385058743614L68.35640624999999,131.86725402729851L68.66578125,116.2932510801724L68.97515625,120.58295789786747L69.28453125,135.79920959472656L69.59390625,129.07660738910948L69.90328124999999,128.21499461787087L70.21265625,121.06413687126977L70.52203125,122.3404785479818L70.83140625,127.89475623198918L71.14078125,124.70730819020952L71.45015625,124.95052387884684L71.75953125000001,126.812987106187L72.06890625000001,134.12012835911344L72.37828125,124.44866686207908L72.68765624999999,140.1873405831201L72.99703124999999,126.3233756508146L73.30640625,117.08977021489824L73.61578125,125.57274911233357L73.92515625,126.62964279311043L74.23453125,127.77702552080154L74.54390624999999,131.45755898952484L74.85328125,132.3164815051215L75.16265625,135.32319259643555L75.47203125,135.30969610384534L75.78140625,141.10464239971978L76.09078125,140.08603022779735L76.40015625000001,136.40094517810005L76.70953125000001,139.03936253275188L77.01890624999999,133.96631657225745L77.32828124999999,131.00139864001954L77.63765624999999,136.75332345281328L77.94703125,137.8868931872504L78.25640625,136.131135897977L78.56578125,144.21791625022888L78.87515625,133.20651151452745L79.18453125,135.38428476027082L79.49390625,138.91579163074493L79.80328125,138.50960824319293L80.11265625,135.4097253850528L80.42203125,146.12232335124696L80.73140625,142.84816166332791L81.04078125000001,140.7777348927089L81.35015625000001,138.85754797288348L81.65953125,141.07214079584392L81.96890624999999,141.6567476647241L82.27828124999999,138.3252541422844L82.58765625,130.44822330134255L82.89703125,130.66045206785202L83.20640625,136.37226418937954L83.51578125,141.16473231145312L83.82515625,143.03009679487775L84.13453125,141.50591249125344L84.44390625,143.29719321216854L84.75328125,150.08477601834704L85.06265625,141.36690087829317L85.37203125,142.38968784468514L85.68140625000001,139.147447509425L85.99078125,146.3673099364553L86.30015625,139.182066653456L86.60953124999999,140.30612629652023L86.91890624999999,136.02016473667962L87.22828125,137.646450647286L87.53765625,140.4028021778379L87.84703125,145.5593364919935L88.15640625,144.870246725423L88.46578125,137.29042507920946L88.77515625000001,146.17795211076736L89.08453125,140.2793443117823L89.39390625,135.8047031419618L89.70328125,151.02187419789178L90.01265625,146.49842410428184L90.32203125,142.12498778956277L90.63140625,139.5362610391208L90.94078125,137.08550597088677L91.25015625,141.76990418774741L91.55953124999999,145.90635686261314L91.86890625,142.64325762646538L92.17828125,145.53841730526517L92.48765625,147.96561568123954L92.79703125,149.80700147151947L93.10640625,146.53119699444088L93.41578125000001,145.37097338267733L93.72515625000001,150.27073522976468L94.03453125,153.72433772257398L94.34390624999999,150.65045313324245L94.65328124999999,153.74778891461236L94.96265625,144.4633700507028L95.27203125,141.86068712813514L95.58140625,143.41866164548057L95.89078125,154.320647580283L96.20015624999999,151.9276538831847L96.50953125,147.14752928699764L96.81890625,154.53667435475757L97.12828125,153.0338689173971L97.43765625,140.4285593032837L97.74703125,148.4054159607206L98.05640625000001,148.64570025035312L98.36578125000001,153.04610694306237L98.67515624999999,140.3188692161015L98.98453124999999,149.04876384564807L99.29390624999999,145.7503069639206L99.60328125,153.48940380130495L99.91265625,148.99011325836182L100.22203125,151.44902198655265L100.53140625,149.17279442719052L100.84078125,153.7112783023289L101.15015625,159.64457306691577L101.45953125,143.68694870812553L101.76890625,143.32714773927415L102.07828125,149.6897153684071L102.38765625,149.95794214521135L102.69703125000001,155.24394030230386L103.00640625000001,139.7243830050741L103.31578125,134.21626920359475L103.62515624999999,140.91132831573486L103.93453124999999,143.43103531428744L104.24390625,139.86565533706118L104.55328125,140.3066613333566L104.86265625,146.54244030373437L105.17203125,147.4216866833823L105.48140625,136.4941470878465L105.79078125,140.99083780390876L106.10015625,146.59548430783408L106.40953125,140.56286108493805L106.71890625,150.91048103570938L107.02828125,143.9450625351497L107.33765625000001,147.00422230788638L107.64703125,157.085258271013L107.95640625,160.7742317574365L108.26578124999999,154.57800029856818L108.57515624999999,142.31794015850338L108.88453125,152.75166336127688L109.19390625,139.1942293218204L109.50328125,153.84395990201403L109.81265625,147.79879722424914L110.12203125,151.36119305236L110.43140625000001,146.69326794147491L110.74078125,142.97210181610924L111.05015625,149.85747579165866L111.35953125,145.84693009512765L111.66890625,149.86067847694667L111.97828125,152.68421104124616L112.28765625,144.75615577186855L112.59703125,156.88743028470446L112.90640625,152.16705649239677L113.21578124999999,146.87508250134331L113.52515625,148.27011192696435L113.83453125,159.54131849323L114.14390625,156.027430159705L114.45328125,156.6869346499443L114.76265625,158.07690006494522L115.07203125000001,152.88373456682476L115.38140625,152.83851265055793L115.69078125,156.86720438514436L116.00015625,155.820883333683L116.30953124999999,155.2299765944481L116.61890625,149.36612358263562L116.92828125,156.49037266629082L117.23765625,150.18989191736492L117.54703125,153.16397329739164L117.85640624999999,154.66460090875626L118.16578125,162.20794962133678L118.47515625,153.9154965877533L118.78453125,161.28307439599718L119.09390625,160.63991490432193L119.40328125,151.09787957157405L119.71265625000001,159.02793934515546L120.02203125000001,155.44200189624513L120.33140625,159.13068148919513L120.64078124999999,162.50613092524665L120.95015624999999,152.74145998273576L121.25953125,158.79358567510332L121.56890625,153.3802035365786L121.87828125,156.18610249246868L122.18765625,150.9907516326223L122.49703125,149.32347135032924L122.80640625,154.1521486554827L123.11578125,149.21225904566901L123.42515625,153.52413598128726L123.73453125,151.0638180715697L124.04390625,160.08092198201587L124.35328125000001,157.80791971513202L124.66265625000001,155.56544469084056L124.97203124999999,158.90796298640115L125.28140624999999,159.01869300433566L125.59078124999999,147.6782180070877L125.90015625,148.01606739418847L126.20953125,157.4613816312381L126.51890625,160.29068656478609L126.82828125,154.90820091962814L127.13765625,156.77449983358383L127.44703125,156.21371340751648L127.75640625,161.95774077517646L128.06578125,163.81415281125476L128.37515625,155.803950548172L128.68453125,156.64427488190788L128.99390625,158.6727201001985L129.30328125,160.60077432223727L129.61265625000001,153.68659125055584L129.92203125,150.4203496149608L130.23140625,155.39592090674807L130.54078125,154.3051390477589L130.85015625,158.4159476331302L131.15953125000001,154.41472363471985L131.46890625,155.2486199906894L131.77828125,158.9449709568705L132.08765625,156.4213227714811L132.39703125,164.70088970661163L132.70640625,158.41625659806388L133.01578125,157.77599082674297L133.32515625,153.39672939266475L133.63453125,160.07808854750226L133.94390625,153.84436683143886L134.25328125000001,159.38325655460358L134.56265625,159.63647215706962L134.87203125,158.20465329715182L135.18140625,161.31613364389966L135.49078125,157.80776900053024L135.80015625,161.8014723403113L136.10953125,156.17402271713527L136.41890625,156.36238582645143L136.72828125,161.6913979308946L137.03765625,133.27928406000137L137.34703125,145.85966547897885L137.65640625,147.0692029084478L137.96578125,141.8148623534611L138.27515625,137.5785989335605L138.58453125,139.97527006694247L138.89390625000001,141.67506702457155L139.20328125,131.80505411114012L139.51265625000002,145.77619973250796L139.82203125,143.7027586698532L140.13140625000003,152.21856320755822L140.44078125,151.14053180388044L140.75015624999997,157.5564825449671L141.05953125,155.28866486038478L141.36890624999998,158.39121536697658L141.67828125,157.79549329621452L141.98765625,158.97136861937386L142.29703125,159.25536014352525L142.60640625,158.75837874412537L142.91578125,159.47207266943795L143.22515625,154.75197769914354L143.53453125,155.24663809367587L143.84390625,161.5669001340866L144.15328125,155.54313892977578L144.46265625,160.900545665196L144.77203125,162.75062768799918L145.08140625000001,163.20738336018155L145.39078125,161.04564614806856L145.70015625,158.9078574861799L146.00953125,157.6083886538233L146.31890625,162.94157555273603L146.62828125000001,158.98252149990628L146.93765625,161.80390638113022L147.24703125000002,160.06685277393888L147.55640625,161.88364947693688L147.86578125,164.07849115133286L148.17515625000001,155.1352147885731L148.48453125,163.56705622162136L148.79390625000002,164.90708235331942L149.10328124999998,161.65556553431918L149.41265625,159.22377036299022L149.72203125,150.71739302362712L150.03140625,161.0286606124469L150.34078125,163.562308711665L150.65015624999998,165.20545205048154L150.95953125,159.12109604052137L151.26890625,162.58320637260164L151.57828125,161.15320362363542L151.88765625,160.14703294209073L152.19703125,158.62154495716095L152.50640625,167.22251078060697L152.81578125,158.03791019746234L153.12515625,170.77667759146007L153.43453125,166.20375542981284L153.74390625,164.52762066466468L154.05328125,164.20653074128288L154.36265625000001,167.2663084438869L154.67203125,163.38555816241671L154.98140625,163.85558425528663L155.29078125,166.8958971670696L155.60015625,166.05360600778033L155.90953125000001,162.009677026953L156.21890625,166.50433309589116L156.52828125000002,162.97790530749728L156.83765625,157.0250477875982L157.14703125000003,157.37771242005485L157.45640625000001,164.39585842405046L157.76578124999997,160.90364285026277L158.07515625,158.44017500536782L158.38453124999998,165.36901507207324L158.69390625,163.3971556510244L159.00328125,156.78672278778893L159.31265625,160.91508208853858L159.62203125,169.05813927309853L159.93140624999998,165.8575715252331L160.24078125,167.26893841368812L160.55015625,168.3725084066391L160.85953125,168.88230054719108L161.16890625,163.1161859546389L161.47828125,167.37999246801647L161.78765625,162.034356542996L162.09703125000001,162.24414373295647L162.40640625,161.71100590058734L162.71578125,154.2589073436601L163.02515625,149.87434829132897L163.33453125,162.7120748928615L163.64390625000001,154.49100029468536L163.95328125,156.01348905903953L164.26265625000002,158.36559388467242L164.57203125,161.56005769116538L164.88140625,166.21436573777882L165.19078125000001,161.2772718838283L165.50015625,165.21369613919939L165.80953125000002,162.71927905082703L166.11890624999998,168.16840315716607L166.42828125000003,166.89842163664954L166.73765625,165.77002894878387L167.04703124999997,165.64228325230735L167.35640625,166.00449565478732L167.66578124999998,166.35921000582832L167.97515625,169.02267612729756L168.28453125,167.65745051418034L168.59390625,167.12162242616924L168.90328125,164.61823028326035L169.21265625,165.79386446305682L169.52203125,164.67338429178508L169.83140625,165.62127363681793L170.14078125,165.04155745676587L170.45015625,164.75189152785708L170.75953125,171.91957655974795L171.06890625,164.72493622132708L171.37828125000001,169.5814052990505L171.68765625,165.24616760015488L171.99703125,166.65727073805672L172.30640625,159.22287361110958L172.61578125,163.70532933303286L172.92515625000001,169.22950931106297L173.23453125,172.6189450621605L173.54390625000002,177.52708287324225L173.85328125,169.39305726119449L174.16265625,170.03212485143115L174.47203125000001,175.14350507089068L174.78140624999997,170.8507462825094L175.09078125,171.47854042053223L175.40015624999998,173.46458208560944L175.70953125,169.3661547047751L176.01890625,163.9737746460097L176.32828125,168.44081226416995L176.63765625,168.31392564092366L176.94703124999998,172.8893496649606L177.25640625,174.93701099497932L177.56578125,175.31805518695285L177.87515625,169.28339731693268L178.18453125,172.6536244920322L178.49390625,168.74861669540405L178.80328125,169.87902142320362L179.11265625,162.81450807196754L179.42203125,168.18128925561905L179.73140625,162.4536897795541L180.04078125,169.71493843623568L180.35015625,165.10304147856576L180.65953125000001,163.29323039736065L180.96890625,162.36834763629096L181.27828125000002,162.7275005323546L181.58765625,165.9439611349787L181.89703125,160.48532693726676L182.20640625000001,167.57957627943586L182.51578125,171.25915271043777L182.82515625000002,169.92489894798825L183.13453125,167.5480543204716L183.44390625000003,178.50293354477202L183.75328125,168.77463757140296L184.06265624999997,170.20314824581146L184.37203125,144.31446402413505L184.68140624999998,152.42681310858043L184.99078125,162.4997330904007L185.30015625,146.2254573532513L185.60953125,152.00500061682294" style="fill: none;" fill="none"></path></g><g><path stroke="rgb(0, 119, 187)" stroke-width="2px" d="M42.36890625,-34.035709721701494L42.678281250000005,1.0536940097808642L42.98765625,-4.373599086489013L43.297031249999996,-5.8809259619031575L43.60640625,4.842342598097656L43.91578125,9.888990896088725L44.22515625,10.34259663309369L44.53453125,9.509476457323345L44.84390625,19.478976079395835L45.15328125,7.359155876295898L45.462656249999995,21.25225394112722L45.77203125,2.6768149137496753L46.08140625,20.679990598133628L46.390781249999996,26.58281840596879L46.70015625,25.01975727081299L47.00953125,20.880908233778808L47.318906250000005,27.101035492760783L47.62828124999999,26.629328932080934L47.937656249999996,26.29903788225991L48.24703125,33.98224220957074L48.55640625,30.142591800008486L48.86578125,34.04255819320679L49.17515625,10.594154374940043L49.48453125,54.53965360777718L49.793906250000006,52.99733080182756L50.103281249999995,45.12329164573124L50.41265625,49.62153472219194L50.72203125,49.505725622177124L51.03140625,44.78924780232564L51.34078125,29.573101605687807L51.65015625,59.77183158057076L51.959531250000005,51.6912682056427L52.26890625,66.45733538695744L52.578281249999996,49.53329132284436L52.88765625,42.772731644766665L53.19703125,50.472288506371626L53.506406250000005,60.33148011139459L53.81578125,64.60089320795876L54.12515625,64.13822952338627L54.43453125,54.36946667943681L54.743906249999995,60.21913744722093L55.05328125,66.15709682873316L55.36265625,58.44964252199445L55.67203125,77.47755692686353L55.98140625,66.1475565944399L56.29078125,64.29536456721169L56.60015625,71.18202715260641L56.90953125,69.5481904404504L57.218906249999996,59.440726671900066L57.52828125,70.21192247526986L57.83765625,65.31366777420044L58.147031250000005,81.00566518306732L58.45640624999999,68.7642182963235L58.765781249999996,68.6397431067058L59.07515625,72.98577950681958L59.38453125,81.87504729202816L59.69390625,80.77196712153298L60.00328125,79.49131500720978L60.31265625,61.136582442692344L60.622031250000006,68.94472917488643L60.931406249999995,79.01829722949437L61.24078125,76.41709884575435L61.55015625,80.05834855352128L61.85953125,76.7689722265516L62.16890625,87.64101116997854L62.47828125,67.2651355096272L62.787656250000005,95.7147923878261L63.09703125,90.37340661457606L63.406406249999996,88.86925981725965L63.71578125,89.92661317757197L64.02515625,86.8688701220921L64.33453125,76.16490810258047L64.64390625,72.91993229729788L64.95328125,82.16303275312696L65.26265625,75.29462170600891L65.57203125,85.91257090227944L65.88140625,76.74256702831813L66.19078125,87.44197746685573L66.50015625,91.64066020080021L66.80953124999999,83.06902343886239L67.11890625,81.05333621161324L67.42828125,79.763837150165L67.73765625,87.10517554623739L68.04703125,89.61326244899205L68.35640624999999,94.26760063852582L68.66578125,80.80399397441319L68.97515625,100.33891229970115L69.28453125,100.77690400396074L69.59390625,81.34102024350847L69.90328124999999,91.02514176709312L70.21265625,85.20749785218919L70.52203125,92.96070911203111L70.83140625,85.27530435153416L71.14078125,84.05792222704206L71.45015625,89.36089084829602L71.75953125000001,100.76336983272007L72.06890625000001,82.98261875765664L72.37828125,93.00700863770075L72.68765624999999,97.07557945592063L72.99703124999999,98.24384369168962L73.30640625,93.26836282866341L73.61578125,98.55368277004786L73.92515625,105.15187760761805L74.23453125,94.0271656342915L74.54390624999999,104.82277720315116L74.85328125,105.091139623097L75.16265625,106.24270468098777L75.47203125,103.23302451201847L75.78140625,98.75111889839172L76.09078125,102.72439287390027L76.40015625000001,101.30006452969141L76.70953125000001,102.23729835237775L77.01890624999999,102.83051102502006L77.32828124999999,95.48138068403516L77.63765624999999,101.97977231230054L77.94703125,104.51052669116429L78.25640625,102.52252573626382L78.56578125,102.26004118578774L78.87515625,90.68537076881952L79.18453125,96.96017728533063L79.49390625,112.8489476782935L79.80328125,100.82480110440935L80.11265625,104.26475639002663L80.42203125,108.09061641352517L80.73140625,96.60843954767499L81.04078125000001,103.11267890248979L81.35015625000001,121.07385796308517L81.65953125,100.20379665919712L81.96890624999999,101.47076388767786L82.27828124999999,100.39488770280565L82.58765625,113.3035933460508L82.89703125,109.45414648737226L83.20640625,100.97744485310145L83.51578125,106.92810947554452L83.82515625,121.28482826266969L84.13453125,107.33726947648185L84.44390625,105.06438778127942L84.75328125,94.77600620474134L85.06265625,96.82598100389752L85.37203125,102.91964364051819L85.68140625000001,111.05312291213444L85.99078125,102.21419380392346L86.30015625,114.98583958830152L86.60953124999999,107.55705658027104L86.91890624999999,114.34026866299766L87.22828125,101.03855962412698L87.53765625,105.06178041866846L87.84703125,116.46334757975168L88.15640625,110.21650615760258L88.46578125,108.55636974743433L88.77515625000001,96.42503494875771L89.08453125,113.70393654278345L89.39390625,108.8625464609691L89.70328125,104.33212581702641L90.01265625,114.92877150433404L90.32203125,109.4276659318379L90.63140625,114.84593122346061L90.94078125,110.19792304720197L91.25015625,119.3785673720496L91.55953124999999,117.61470917293003L91.86890625,114.9443855370794L92.17828125,124.01629681246621L92.48765625,113.57282991068703L92.79703125,122.95624566078186L93.10640625,117.84545322826929L93.41578125000001,115.97879259926933L93.72515625000001,101.15212307657514L94.03453125,103.5726146527699L94.34390624999999,118.05024422918046L94.65328124999999,127.64011637653624L94.96265625,114.31833215270723L95.27203125,121.39941657441003L95.58140625,108.80037668773106L95.89078125,104.60773760931832L96.20015624999999,107.45749451432908L96.50953125,113.50211461952753L96.81890625,121.5968300955636L97.12828125,115.56537491083145L97.43765625,107.92136391571589L97.74703125,113.32442210401807L98.05640625000001,122.83348861762455L98.36578125000001,123.37471982410975L98.67515624999999,119.67420159918922L98.98453124999999,116.46423679590225L99.29390624999999,120.22378239461354L99.60328125,111.34210308960505L99.91265625,122.42533086878913L100.22203125,125.33070146186012L100.53140625,97.11615182672227L100.84078125,109.57842574800763L101.15015625,110.713532771383L101.45953125,127.09536598409926L101.76890625,122.11021677936827L102.07828125,116.47119227477482L102.38765625,110.66393259593418L102.69703125000001,128.00466485534395L103.00640625000001,116.88861897162028L103.31578125,122.77862850257328L103.62515624999999,121.10556831530161L103.93453124999999,119.04427484955106L104.24390625,115.69303771427698L104.55328125,119.98347549779075L104.86265625,122.000436263425L105.17203125,131.3744398866381L105.48140625,128.69067250830787L105.79078125,124.92047892298018L106.10015625,126.47808418955123L106.40953125,111.00599445615495L106.71890625,112.69018491676874L107.02828125,129.82577953168322L107.33765625000001,122.2782710960933L107.64703125,130.00828737871987L107.95640625,123.59013620444706L108.26578124999999,134.28446002517427L108.57515624999999,131.73803132772446L108.88453125,120.17058014018195L109.19390625,123.23451756579536L109.50328125,120.41752601521355L109.81265625,127.96846320799418L110.12203125,127.41494122573307L110.43140625000001,127.48376504864012L110.74078125,125.33486118486948L111.05015625,133.02333298751284L111.35953125,130.18379453250338L111.66890625,123.95664397307804L111.97828125,129.64496722391672L112.28765625,119.81415517841066L112.59703125,124.29512636150633L112.90640625,128.25026183468955L113.21578124999999,130.24319869279861L113.52515625,125.71839970350266L113.83453125,127.96217087336949L114.14390625,125.59415058578765L114.45328125,114.0825617653983L114.76265625,118.20864527566093L115.07203125000001,140.2069033384323L115.38140625,135.49958143063952L115.69078125,134.1830441696303L116.00015625,122.56863784790039L116.30953124999999,119.55314009530204L116.61890625,116.14387030260903L116.92828125,131.23677716936385L117.23765625,129.60417631694247L117.54703125,118.70659878424235L117.85640624999999,127.24425693920679L118.16578125,135.67147143398012L118.47515625,133.09573628221239L118.78453125,129.59817787579127L119.09390625,137.8795383146831L119.40328125,131.1757528270994L119.71265625000001,134.93960886342185L120.02203125000001,129.06238746643066L120.33140625,139.48971283435822L120.64078124999999,132.27130480323518L120.95015624999999,132.4228709425245L121.25953125,135.12837136643273L121.56890625,132.94569236040115L121.87828125,138.91969513893127L122.18765625,128.33009535925729L122.49703125,123.62700853177479L122.80640625,134.32831043856484L123.11578125,119.9463243484497L123.42515625,140.50975679499763L123.73453125,130.96858807121004L124.04390625,135.11357119253705L124.35328125000001,131.21998002699442L124.66265625000001,137.61846294573377L124.97203124999999,132.16338561262404L125.28140624999999,121.25820452826363L125.59078124999999,128.9615367906434L125.90015625,130.21493970496314L126.20953125,131.40605981009347L126.51890625,134.57203855684827L126.82828125,138.03322199412753L127.13765625,137.47535189560483L127.44703125,136.15778977530343L127.75640625,130.36709363119942L128.06578125,128.5458659189088L128.37515625,135.23830259697777L128.68453125,143.48413960422786L128.99390625,136.9333445089204L129.30328125,131.07600990363528L129.61265625000001,132.50884608711516L129.92203125,125.13048464911324L130.23140625,139.98818630831582L130.54078125,143.183765402862L130.85015625,133.07323459216525L131.15953125000001,124.03867039510182L131.46890625,136.3649997455733L131.77828125,133.90887923751558L132.08765625,130.79638156720569L132.39703125,126.27350418908256L132.70640625,146.4890270488603L133.01578125,133.5150544473103L133.32515625,139.09324300289154L133.63453125,136.2454604591642L133.94390625,136.57936112369808L134.25328125000001,143.61303826740811L134.56265625,142.402144406523L134.87203125,141.44512929235185L135.18140625,141.8818549939564L135.49078125,136.52076328652245L135.80015625,128.23802380902427L136.10953125,140.7585187809808L136.41890625,146.31330889463425L136.72828125,136.83605823346545L137.03765625,129.86760283367974L137.34703125,142.0538957118988L137.65640625,136.393190911838L137.96578125,142.71077023233684L138.27515625,141.07943538257052L138.58453125,137.05501640694482L138.89390625000001,132.7727850334985L139.20328125,141.88954143864768L139.51265625000002,152.36949634552002L139.82203125,135.11162697417396L140.13140625000003,142.87629254375184L140.44078125,137.24400498185838L140.75015624999997,131.09514312233244L141.05953125,141.40332106181552L141.36890624999998,134.55595730883735L141.67828125,131.4889829839979L141.98765625,143.4991206356457L142.29703125,139.07943754536765L142.60640625,134.97058071408952L142.91578125,140.6480525135994L143.22515625,125.35962359394347L143.53453125,135.8851847393172L143.84390625,149.55239929471696L144.15328125,143.41335649149758L144.46265625,135.9839178749493L144.77203125,139.2576349547931L145.08140625000001,136.7402188181877L145.39078125,132.55409061057227L145.70015625,148.1926521573748L146.00953125,136.3805082780974L146.31890625,134.2021547811372L146.62828125000001,145.19866137845176L146.93765625,148.56990587711334L147.24703125000002,133.90089889935086L147.55640625,137.1142321739878L147.86578125,148.2602777991976L148.17515625000001,145.9925279361861L148.48453125,139.5608802693231L148.79390625000002,143.00277223757337L149.10328124999998,139.57043557507652L149.41265625,137.7057191644396L149.72203125,134.58506783417295L150.03140625,148.08384375061306L150.34078125,133.45389446190427L150.65015624999998,143.45126874957765L150.95953125,144.26126930543353L151.26890625,150.83605062961578L151.57828125,136.522662290505L151.88765625,146.55153592995237L152.19703125,147.51688556160244L152.50640625,145.21267030068805L152.81578125,141.50561859777997L153.12515625,146.44200409310204L153.43453125,142.03565924508231L153.74390625,143.12323088305337L154.05328125,141.28383452551705L154.36265625000001,148.32559750761303L154.67203125,137.30797579458783L154.98140625,139.74046425308498L155.29078125,141.33815206800188L155.60015625,146.32297723633903L155.90953125000001,134.0010261450495L156.21890625,140.85771913187844L156.52828125000002,144.30009338685443L156.83765625,145.45807135105133L157.14703125000003,130.01767689841134L157.45640625000001,135.7722844311169L157.76578124999997,141.44729204688753L158.07515625,143.2187990120479L158.38453124999998,153.67287622179302L158.69390625,141.87948123897823L159.00328125,146.97884950467517L159.31265625,139.60658447231563L159.62203125,150.23905502046856L159.93140624999998,142.5688799704824L160.24078125,149.15030780860354L160.55015625,146.31636840105057L160.85953125,137.9276464155742L161.16890625,149.21262076071332L161.47828125,152.5232855251857L161.78765625,139.2940325311252L162.09703125000001,150.26616104160036L162.40640625,148.50240080697196L162.71578125,145.85927362101418L163.02515625,145.93184270177568L163.33453125,151.57342935459954L163.64390625000001,140.27581005437034L163.95328125,147.44073700904846L164.26265625000002,146.59950838770183L164.57203125,151.36786970921924L164.88140625,147.26513189077377L165.19078125000001,147.57163264070238L165.50015625,138.531431717532L165.80953125000002,141.97870419706615L166.11890624999998,147.23261521543773L166.42828125000003,141.55081790685654L166.73765625,147.93773347990853L167.04703124999997,141.80335529361452L167.35640625,133.6679920894759L167.66578124999998,148.35184445551465L167.97515625,148.06697878667285L168.28453125,148.18942686489652L168.59390625,146.13771884781974L168.90328125,150.8984615462167L169.21265625,135.8702715294702L169.52203125,147.57103731802533L169.83140625,150.44848803111483L170.14078125,134.10565222161156L170.45015625,153.8468762295587L170.75953125,138.77134675639016L171.06890625,146.86297258308957L171.37828125000001,143.87432463679994L171.68765625,150.1825521162578L171.99703125,146.5294110264097L172.30640625,141.49415675231387L172.61578125,153.62317054612296L172.92515625000001,144.24844349282128L173.23453125,151.44568365812302L173.54390625000002,145.61828850848335L173.85328125,145.50446130548204L174.16265625,153.03352980954307L174.47203125000001,148.70087686606814L174.78140624999997,149.6853521806853L175.09078125,154.68328198364804L175.40015624999998,152.5210850919996L175.70953125,148.15599836621965L176.01890625,155.41772177389691L176.32828125,135.86370790856225L176.63765625,150.27610066958835L176.94703124999998,142.12304357119967L177.25640625,147.37623869521278L177.56578125,151.66323265007566L177.87515625,145.83290610143115L178.18453125,142.68359638963426L178.49390625,147.69352307489942L178.80328125,150.8871730225427L179.11265625,151.71242589609963L179.42203125,154.0222929545811L179.73140625,147.41113666125705L180.04078125,152.94730598585946L180.35015625,154.52827955143792L180.65953125000001,148.6337787253516L180.96890625,148.49041146039963L181.27828125000002,148.91473335027695L181.58765625,149.55376326186317L181.89703125,148.0119754927499L182.20640625000001,151.1935230578695L182.51578125,142.64034129892076L182.82515625000002,144.77640427861894L183.13453125,153.05357485158103L183.44390625000003,151.48111666100365L183.75328125,151.7236842768533L184.06265624999997,148.54239292655672L184.37203125,154.21327849796842L184.68140624999998,150.9870440534183L184.99078125,154.0438828212874L185.30015625,142.76774788754327L185.60953125,143.31193310022354L185.91890625,144.47927797692162L186.22828124999998,152.45718963657106L186.53765625,154.06861508744103L186.84703125,141.8124584555626L187.15640625,153.5064496227673L187.46578125,148.86663278511594L187.77515625,154.39776824201854L188.08453125,148.3324248790741L188.39390625000001,142.202168737139L188.70328125,155.51378726107734L189.01265625,152.17627269029617L189.32203125,163.3860103062221L189.63140625,164.97843818153652L189.94078125000001,151.92714145353864L190.25015625,148.6177050130708L190.55953125000002,151.735959981169L190.86890625,155.69759878941943L191.17828125,141.7391734804426L191.48765625000001,148.7176363297871L191.79703125,155.56852680444717L192.10640625000002,150.8543624537332L192.41578124999998,151.23673293420245L192.72515625,151.69065517187119L193.03453125,151.20147325311387L193.34390625,147.40277953658784L193.65328125,149.21308797597885L193.96265624999998,157.33695919173104L194.27203125,158.50353542396L194.58140625,150.8427423579352L194.89078125,150.7642501933234L195.20015625,157.992138172899L195.50953125,155.2298334155764L195.81890625,151.17589698519024L196.12828125,155.2925909757614L196.43765625,152.3808752979551L196.74703125,156.05928369079317L197.05640625,143.89819029399325L197.36578125,154.845096715859L197.67515625000001,158.9928002357483L197.98453125,158.20642419372285L198.29390625,162.98321046148027L198.60328125,148.6603647811072L198.91265625,148.18403128215243L199.22203125000001,160.76445037978036L199.53140625,148.9797440937587L199.84078125000002,153.31030210426877L200.15015625,152.4185690198626L200.45953125000003,156.01895246335437L200.76890625000001,161.57620676074708L201.07828124999997,155.57545967612947L201.38765625,162.12021111590522L201.69703124999998,155.49613858120782L202.00640625,156.6263925944056L202.31578125,155.9548836861338L202.62515625,160.53395500353406L202.93453125,160.6307137778827L203.24390624999998,154.2454560654504L203.55328125,152.65981034721645L203.86265625,162.30261346272061L204.17203125,157.9547157372747L204.48140625,152.74388648782457L204.79078125,154.00964046376092L205.10015625,157.4408618382045L205.40953125,150.56932346309932L205.71890625,157.95183708838056L206.02828125,155.17094922065735L206.33765625,156.327811896801L206.64703125,154.08206636565072L206.95640625000001,158.95916827235902L207.26578125,163.9522149222238L207.57515625000002,150.75727964299065L207.88453125,157.52144893578122L208.19390625,153.90551928111483L208.50328125000001,157.948001401765L208.81265625,153.1699189884322L209.12203125000002,164.66969178404125L209.43140625,154.82032677105497L209.74078125000003,148.27544722386767L210.05015625,152.447581580707L210.35953124999997,139.00278409889768L210.66890625,154.63579181262423L210.97828124999998,164.25145122834613L211.28765625,157.8287409373692L211.59703125,149.95751260859626L211.90640625,151.0589650613921L212.21578125,156.06216233968735L212.52515625,156.11625381026948L212.83453125,153.7317980953625L213.14390625,155.52307128054755L213.45328125,151.700918836253L213.76265625,164.09098539182116L214.07203125,162.20594511713298L214.38140625,158.9413839493479L214.69078125000001,150.57489236763547L215.00015625,152.1688198532377L215.30953125,157.90047355209077L215.61890625,156.58051506962093L215.92828125,164.88721063307355L216.23765625000001,154.69240021705627L216.54703125,151.21606242656708L216.85640625000002,150.89776825904846L217.16578125,157.74900537729263L217.47515625,163.95122774158204L217.78453125000001,151.44491501365388L218.09390625,164.7802786231041L218.40328125000002,159.31428955282482L218.71265624999998,163.58731226410183L219.02203125,163.29214525222778L219.33140625,159.12350747414996L219.64078125,149.79019679341997L219.95015625,162.49139857292175L220.25953124999998,157.1566517778805L220.56890625,158.4749976141112L220.87828125,160.82915215832847L221.18765625,157.2217378786632L221.49703125,163.76749910627092L221.80640625,143.4414496932711L222.11578125,153.4429610967636L222.42515625,149.15652478592736L222.73453125,165.01367525543483L223.04390625,151.50999357870649L223.35328125,160.17526932273591L223.66265625,162.91810928923744L223.97203125000001,153.51678110871995L224.28140625,154.85829931497574L224.59078125,155.00373890570233L224.90015625,159.26958760193418L225.20953125,159.46501922607422L225.51890625000001,155.90982002019882L225.82828125,161.5948501569884L226.13765625000002,155.55266409260886L226.44703125,164.813458442688L226.75640625000003,160.86298005070003L227.06578125000001,163.10661557742526L227.37515624999997,153.50947145053317L227.68453125,161.80881214141846L227.99390624999998,150.3916158761297L228.30328125,157.98283908196856L228.61265625,152.43310544320514L228.92203125,150.90987064157213L229.23140625,155.4371639575277L229.54078124999998,161.58601074559348L229.85015625,157.13981695686067L230.15953125,162.42090181793483L230.46890625,168.55176835400718L230.77828125,160.70176817689622L231.08765625,166.40622542585643L231.39703125,155.36892792156766L231.70640625000001,160.44173273869922L232.01578125,159.02888884714673L232.32515625,159.26955745901378L232.63453125,155.14276559012276L232.94390625,165.50272906678063L233.25328125000001,159.51161264521735L233.56265625,161.18045282363892L233.87203125000002,164.16366750853402L234.18140625,158.04317767279488L234.49078125,156.61225556475776L234.80015625000001,161.60283803088325L235.10953125,157.3338921495846L235.41890625000002,155.6392270241465L235.72828124999998,149.8061876126698L236.03765625000003,154.79677007879528L236.34703125,160.7923250453813L236.65640624999997,162.39243182965686L236.96578125,158.5117493697575L237.27515624999998,158.16808993475777L237.58453125,161.85325787748607L237.89390625,145.53272029331754L238.20328125,153.86161611761364L238.51265625,168.72175181763512L238.82203125,160.69313976594378L239.13140625,166.46185418537686L239.44078125,161.61055461849483L239.75015625,159.74006583860944L240.05953125,168.52482811893734L240.36890625,162.04249513149261L240.67828125,167.4873841575214L240.98765625000001,161.70866228852952L241.29703125,165.39132836886813L241.60640625,165.42126782451356L241.91578125,159.89832370621818L242.22515625,154.81781737293514L242.53453125000001,159.16928703444344L242.84390625,164.9016716991152L243.15328125000002,169.27539437157768L243.46265625,169.66077914408277L243.77203125,169.89922471557347L244.08140625000001,157.4916300518172L244.39078124999997,157.2271033184869L244.70015625,168.1348465510777L245.00953124999998,165.5889754976545L245.31890625,164.8184546317373L245.62828125,161.99690396445138L245.93765625,165.08060007435935L246.24703125,159.1681642106601L246.55640624999998,164.23056218453814L246.86578125,159.25219513688768L247.17515625,166.2436721920967L247.48453125,156.04672916446413L247.79390625,168.95568348680226L248.10328125,158.44150129386355L248.41265625,153.44008244786943L248.72203125,153.9003874489239L249.03140625,160.19591722318103L249.34078125,162.6222037758146L249.65015625,163.33013286760877L249.95953125,163.11167958804538L250.26890625000001,162.88256325040544L250.57828125,163.18993060929435L250.88765625000002,159.1089107649667L251.19703125,160.28042290040423L251.50640625,160.3466544321605L251.81578125000001,164.82428728682655L252.12515625,171.86109929425376L252.43453125000002,159.00794705322812L252.74390625,162.08666204554694L253.05328125000003,164.92414324624198L253.36265625,155.40832471847534L253.67203124999997,163.97505572012494L253.98140625,158.9166516831943L254.29078124999998,168.17480852774213L254.60015625,159.97622808388303L254.90953125,160.57828770365032L255.21890625,163.0215823990958L255.52828125,158.11231799636568L255.83765624999998,160.46518393073762L256.14703125,161.45995305265697L256.45640625,170.50016904728753L256.76578125000003,170.46918212515968L257.07515625,164.78238862752914L257.38453125,164.54170494420188L257.69390625,166.98093034539906L258.00328125,163.8824265258653L258.31265625,157.37334923233303L258.62203124999996,158.33792268378394L258.93140625,170.54778732572285L259.24078125,165.36233087948392L259.55015625,166.83882908310207L259.85953125,163.37824096849988L260.16890625,166.62005930287498L260.47828125,156.108461865357L260.78765625,165.11953719173158L261.09703125,155.87298537152154L261.40640625,158.72021780695232L261.71578125,160.69267255067825L262.02515625,166.49507921934128L262.33453125,167.62866402523858L262.64390625,159.60256137166704L262.95328125000003,165.92084905079435" style="fill: none;" fill="none"></path></g></g></g></g></g></g><g transform="translate(51, 177)" clip-path="url(#clip_1)"><clipPath id="clip_1"><rect width="278" height="23"></rect></clipPath><g><g><line x1="0" y1="0" x2="0" y2="5" style="visibility: inherit;" fill="rgb(0, 0, 0)" stroke="rgb(204, 204, 204)" stroke-width="1px"></line><line x1="30.9375" y1="0" x2="30.9375" y2="5" style="visibility: inherit;" fill="rgb(0, 0, 0)" stroke="rgb(204, 204, 204)" stroke-width="1px"></line><line x1="61.875" y1="0" x2="61.875" y2="5" style="visibility: inherit;" fill="rgb(0, 0, 0)" stroke="rgb(204, 204, 204)" stroke-width="1px"></line><line x1="92.8125" y1="0" x2="92.8125" y2="5" style="visibility: inherit;" fill="rgb(0, 0, 0)" stroke="rgb(204, 204, 204)" stroke-width="1px"></line><line x1="123.75" y1="0" x2="123.75" y2="5" style="visibility: inherit;" fill="rgb(0, 0, 0)" stroke="rgb(204, 204, 204)" stroke-width="1px"></line><line x1="154.6875" y1="0" x2="154.6875" y2="5" style="visibility: inherit;" fill="rgb(0, 0, 0)" stroke="rgb(204, 204, 204)" stroke-width="1px"></line><line x1="185.625" y1="0" x2="185.625" y2="5" style="visibility: inherit;" fill="rgb(0, 0, 0)" stroke="rgb(204, 204, 204)" stroke-width="1px"></line><line x1="216.5625" y1="0" x2="216.5625" y2="5" style="visibility: inherit;" fill="rgb(0, 0, 0)" stroke="rgb(204, 204, 204)" stroke-width="1px"></line><line x1="247.5" y1="0" x2="247.5" y2="5" style="visibility: inherit;" fill="rgb(0, 0, 0)" stroke="rgb(204, 204, 204)" stroke-width="1px"></line><line x1="278.4375" y1="0" x2="278.4375" y2="5" style="visibility: inherit;" fill="rgb(0, 0, 0)" stroke="rgb(204, 204, 204)" stroke-width="1px"></line></g><g transform="translate(0, 8)"><text x="0" y="0" dx="0em" dy="0.95em" style="text-anchor: middle; visibility: hidden; font-family: Roboto, sans-serif; font-size: 12px; font-weight: 200;" fill="rgb(33, 33, 33)" stroke="none" stroke-width="1px">-2k</text><text x="30.9375" y="0" dx="0em" dy="0.95em" style="text-anchor: middle; visibility: inherit; font-family: Roboto, sans-serif; font-size: 12px; font-weight: 200;" fill="rgb(33, 33, 33)" stroke="none" stroke-width="1px">0</text><text x="61.875" y="0" dx="0em" dy="0.95em" style="text-anchor: middle; visibility: inherit; font-family: Roboto, sans-serif; font-size: 12px; font-weight: 200;" fill="rgb(33, 33, 33)" stroke="none" stroke-width="1px">2k</text><text x="92.8125" y="0" dx="0em" dy="0.95em" style="text-anchor: middle; visibility: inherit; font-family: Roboto, sans-serif; font-size: 12px; font-weight: 200;" fill="rgb(33, 33, 33)" stroke="none" stroke-width="1px">4k</text><text x="123.75" y="0" dx="0em" dy="0.95em" style="text-anchor: middle; visibility: inherit; font-family: Roboto, sans-serif; font-size: 12px; font-weight: 200;" fill="rgb(33, 33, 33)" stroke="none" stroke-width="1px">6k</text><text x="154.6875" y="0" dx="0em" dy="0.95em" style="text-anchor: middle; visibility: inherit; font-family: Roboto, sans-serif; font-size: 12px; font-weight: 200;" fill="rgb(33, 33, 33)" stroke="none" stroke-width="1px">8k</text><text x="185.625" y="0" dx="0em" dy="0.95em" style="text-anchor: middle; visibility: inherit; font-family: Roboto, sans-serif; font-size: 12px; font-weight: 200;" fill="rgb(33, 33, 33)" stroke="none" stroke-width="1px">10k</text><text x="216.5625" y="0" dx="0em" dy="0.95em" style="text-anchor: middle; visibility: inherit; font-family: Roboto, sans-serif; font-size: 12px; font-weight: 200;" fill="rgb(33, 33, 33)" stroke="none" stroke-width="1px">12k</text><text x="247.5" y="0" dx="0em" dy="0.95em" style="text-anchor: middle; visibility: inherit; font-family: Roboto, sans-serif; font-size: 12px; font-weight: 200;" fill="rgb(33, 33, 33)" stroke="none" stroke-width="1px">14k</text><text x="278.4375" y="0" dx="0em" dy="0.95em" style="text-anchor: middle; visibility: hidden; font-family: Roboto, sans-serif; font-size: 12px; font-weight: 200;" fill="rgb(33, 33, 33)" stroke="none" stroke-width="1px">16k</text></g><line x1="0" y1="0" x2="278.4375" y2="0" fill="rgb(0, 0, 0)" stroke="rgb(204, 204, 204)" stroke-width="1px"></line></g></g></g></g></svg>